<svg id="Layer_1" data-name="Layer 1" xmlns="http://www.w3.org/2000/svg" viewBox="0 0 844.83 679.37"><defs><style>.cls-1{fill:#e95428;}.cls-2{fill:#deecf1;}.cls-3{fill:#cbe5e8;}.cls-4{fill:#eef5f6;}</style></defs><path class="cls-1" d="M362.22,185.12l-40.35,4.32H75.19a16,16,0,0,1-16-16V141.56H380.07L377.56,169c0,8.81-6.53,16.14-15.34,16.14h0Z"/><path class="cls-1" d="M767.74,185.12l-40.35,4.32H480.72a16,16,0,0,1-16-16V141.56H785.6L783.09,169c0,8.81-6.53,16.14-15.34,16.14h0Z"/><path class="cls-2" d="M269.38,443.46,235.5,456.31l-21-9.87a54.13,54.13,0,0,1-46.17-25.87L159.39,406a8.84,8.84,0,0,1,7.54-13.46h104.9l43.46,2c6.91,0,8.38,6.64,4.77,12.53L310,420.3c-9.84,16.07-21.75,23.16-40.6,23.16Z"/><path class="cls-3" d="M317.3,392.53H267.79A8.84,8.84,0,0,1,275.33,406l-8.93,14.58a54.14,54.14,0,0,1-46.17,25.87l26.62,4.6,22.88-4.6a54.13,54.13,0,0,0,46.17-25.87L324.83,406a8.85,8.85,0,0,0-7.54-13.46Z"/><path class="cls-4" d="M269.38,497.38l-41.15,8.71-13.74-5.73a54.13,54.13,0,0,1-46.17-25.87l-8.93-14.58a8.84,8.84,0,0,1,7.54-13.46h104.9l43.46,2c6.91,0,8.38,6.64,4.77,12.53L310,474.22c-9.84,16.07-21.75,23.16-40.6,23.16Z"/><path class="cls-2" d="M317.3,446.45H267.79a8.84,8.84,0,0,1,7.54,13.46l-8.93,14.58a54.14,54.14,0,0,1-46.17,25.87l26.26,4.19,23.25-4.19a54.13,54.13,0,0,0,46.17-25.87l8.93-14.58a8.84,8.84,0,0,0-7.54-13.46Z"/><path class="cls-2" d="M630,443.46l-33.88,12.85-21-9.87a54.13,54.13,0,0,1-46.17-25.87L520,406a8.84,8.84,0,0,1,7.54-13.46h104.9l43.46,2c6.91,0,8.38,6.64,4.77,12.53L670.56,420.3c-9.84,16.07-21.76,23.16-40.6,23.16Z"/><path class="cls-3" d="M677.88,392.53H628.37A8.84,8.84,0,0,1,635.91,406L627,420.57a54.14,54.14,0,0,1-46.17,25.87l26.62,4.6,22.88-4.6a54.13,54.13,0,0,0,46.17-25.87L685.41,406a8.85,8.85,0,0,0-7.54-13.46Z"/><path class="cls-4" d="M630,497.38l-36.41,13-18.48-10a54.13,54.13,0,0,1-46.17-25.87L520,459.91a8.84,8.84,0,0,1,7.54-13.46h104.9l43.46,2c6.91,0,8.38,6.64,4.77,12.53l-10.08,13.22c-9.84,16.07-21.76,23.16-40.6,23.16Z"/><path class="cls-2" d="M677.88,446.45H628.37a8.84,8.84,0,0,1,7.54,13.46L627,474.49a54.14,54.14,0,0,1-46.17,25.87l26.37,11.27,23.14-11.27a54.13,54.13,0,0,0,46.17-25.87l8.93-14.58A8.84,8.84,0,0,0,677.88,446.45Z"/><path class="cls-1" d="M102,667H61.64a6.61,6.61,0,0,1-6.6-6.6V348.74l10.25-55.46H98l10.58,55.46V660.39A6.6,6.6,0,0,1,102,667Z"/><path class="cls-1" d="M783.19,667H742.86a6.6,6.6,0,0,1-6.6-6.6V348.74l17.33-55.46H781l8.76,55.46V660.39a6.6,6.6,0,0,1-6.6,6.6Z"/><path class="cls-1" d="M820.86,308.08l-27.08,2.71H20.86a8.48,8.48,0,0,1-8.48-8.48V253.08a8.48,8.48,0,0,1,8.48-8.48H242.14l188.29,33.1L602.7,244.6h191L821.82,247a8.48,8.48,0,0,1,8.48,8.48l-.95,44.14a8.48,8.48,0,0,1-8.48,8.48Z"/><path class="cls-4" d="M583.38,252.59,426,412.09a6.59,6.59,0,0,1-9.33,0l-24.78-17.75L242.14,244.59h299.5Z"/><path class="cls-2" d="M541.64,244.59,391.89,394.34l25.86,25.86a6.59,6.59,0,0,0,9.33,0L602.69,244.59H541.64Z"/><path d="M824,232.74H769V203.87a27.94,27.94,0,0,0,24.75-27.72v-19h4a12.38,12.38,0,0,0,0-24.76H768.23A99,99,0,0,0,670.6,45.58V28.79A28.82,28.82,0,0,0,641.81,0H608.55a28.82,28.82,0,0,0-28.79,28.79V45.58a98.91,98.91,0,0,0-97.64,86.83H452.61a12.38,12.38,0,0,0,0,24.76h4v19a27.94,27.94,0,0,0,24.76,27.72v28.87H363.51V203.87a28,28,0,0,0,24.76-27.72v-19h4a12.38,12.38,0,0,0,0-24.76H362.71a99,99,0,0,0-97.63-86.83V28.79A28.83,28.83,0,0,0,236.28,0H203a28.82,28.82,0,0,0-28.78,28.79V45.57a98.81,98.81,0,0,0-34.14,6.32,12.38,12.38,0,0,0,8.71,23.17A74.31,74.31,0,0,1,175,70.31h89.24a74.34,74.34,0,0,1,73.43,62.1H101.6A74.37,74.37,0,0,1,110.87,107,12.37,12.37,0,1,0,89.58,94.35a99.09,99.09,0,0,0-13,38.06H47.09a12.38,12.38,0,0,0,0,24.76h4v19a27.94,27.94,0,0,0,24.75,27.72v28.87h-55A20.85,20.85,0,0,0,0,253.57v48.78a20.84,20.84,0,0,0,20.82,20.82H42.67V667a12.38,12.38,0,0,0,12.38,12.38h53.53A12.38,12.38,0,0,0,121,667V578.4H375.32a12.38,12.38,0,0,0,0-24.76H121V512.73H723.88v40.91H433.05a12.38,12.38,0,0,0,0,24.76H723.88V667a12.38,12.38,0,0,0,12.38,12.38h53.53A12.38,12.38,0,0,0,802.17,667V323.16H824a20.84,20.84,0,0,0,20.82-20.82V253.56A20.84,20.84,0,0,0,824,232.74h0Zm-621-208h33.26a4,4,0,0,1,4,4V45.56H199V28.79a4,4,0,0,1,4-4Zm405.52,0h33.26a4,4,0,0,1,4,4V45.56H604.51V28.79a4,4,0,0,1,4-4Zm-28,45.57H669.8a74.34,74.34,0,0,1,73.43,62.1H507.11a74.24,74.24,0,0,1,73.43-62.1Zm-99.22,86.85H769v19a3.16,3.16,0,0,1-3.16,3.16H484.5a3.16,3.16,0,0,1-3.16-3.16v-19Zm24.75,46.89H744.27v28.68H506.08V204.06ZM422.42,408.68,271.24,257.5H573.61L422.43,408.68ZM75.8,157.17H363.5v19a3.16,3.16,0,0,1-3.16,3.16H79a3.16,3.16,0,0,1-3.16-3.16v-19Zm24.76,46.89H338.75v28.68H100.56ZM24.75,257.49H236.23l40.92,40.92H24.75ZM178.88,414.11l-5.63-9.2H311l-5.63,9.2a42,42,0,0,1-35.62,20H214.51a42,42,0,0,1-35.62-20Zm0,53.92-5.63-9.2H311l-5.63,9.2a42,42,0,0,1-35.62,20H214.51a42,42,0,0,1-35.62-20Zm360.59-53.92-5.63-9.2H671.59l-5.63,9.2a42,42,0,0,1-35.62,20H575.1a42,42,0,0,1-35.62-20h0Zm0,53.92-5.63-9.2H671.59L666,468a42,42,0,0,1-35.62,20H575.1a42,42,0,0,1-35.62-20h0ZM777.41,654.62H748.63V323.17h28.78Zm42.67-356.2H675a12.38,12.38,0,0,0,0,24.76h48.91V488h-41.8a64.5,64.5,0,0,0,5-7L696,466.39a21.21,21.21,0,0,0-14.22-31.93,64.9,64.9,0,0,0,5.29-7.4L696,412.48a21.22,21.22,0,0,0-18.1-32.3H527.51a21.22,21.22,0,0,0-18.1,32.3l8.93,14.58a65.26,65.26,0,0,0,5.29,7.4,21.21,21.21,0,0,0-14.23,31.93L518.33,481a64.9,64.9,0,0,0,5,7H321.46a64.5,64.5,0,0,0,5-7l8.93-14.58a21.21,21.21,0,0,0-14.22-31.93,64.9,64.9,0,0,0,5.29-7.4l8.93-14.58a21.22,21.22,0,0,0-18.1-32.3H166.89a21.22,21.22,0,0,0-18.1,32.3l8.93,14.58a65.26,65.26,0,0,0,5.29,7.4,21.21,21.21,0,0,0-14.23,31.93L157.71,481a64.9,64.9,0,0,0,5,7H120.89V438.78a12.38,12.38,0,1,0-24.76,0V654.62H67.35V323.17H96.13V381a12.38,12.38,0,1,0,24.76,0V323.17h181L413.6,434.93a12.36,12.36,0,0,0,17.5,0L542.88,323.15h74.28a12.38,12.38,0,0,0,0-24.76H567.62l40.92-40.92H820V298.4Z"/></svg>