<?xml version="1.0" encoding="UTF-8"?>
<svg id="Layer_1" xmlns="http://www.w3.org/2000/svg" viewBox="0 0 844.83 679.37">
  <path d="M851.11,232.74h-54.98v-28.87c13.91-1.58,24.75-13.4,24.75-27.72v-18.98h3.97c6.84,0,12.38-5.54,12.38-12.38s-5.54-12.38-12.38-12.38h-29.52c-6.07-49.01-47.5-86.43-97.63-86.83v-16.79c0-15.88-12.92-28.79-28.79-28.79h-33.26c-15.88,0-28.79,12.92-28.79,28.79v16.79c-50.24.39-91.58,37.77-97.64,86.83h-29.51c-6.84,0-12.38,5.54-12.38,12.38s5.54,12.38,12.38,12.38h3.97v18.98c0,14.32,10.85,26.15,24.76,27.72v28.87h-117.83v-28.87c13.91-1.58,24.76-13.4,24.76-27.72v-18.98h3.97c6.84,0,12.38-5.54,12.38-12.38s-5.54-12.38-12.38-12.38h-29.53c-6.07-49.02-47.49-86.44-97.63-86.83v-16.79C292.18,12.92,279.27,0,263.39,0h-33.26C214.26,0,201.34,12.92,201.34,28.79v16.78c-11.73.09-23.21,2.21-34.14,6.32-6.4,2.41-9.63,9.54-7.23,15.94,2.41,6.4,9.54,9.63,15.94,7.23,8.38-3.15,17.21-4.75,26.23-4.75h89.24c36.84,0,67.54,26.65,73.43,62.1h-236.11c1.51-8.96,4.65-17.64,9.27-25.45,3.48-5.88,1.54-13.47-4.34-16.95-5.88-3.48-13.47-1.54-16.95,4.34-6.88,11.62-11.29,24.66-12.97,38.06h-29.52c-6.84,0-12.38,5.54-12.38,12.38s5.54,12.38,12.38,12.38h3.97v18.98c0,14.32,10.85,26.15,24.75,27.72v28.87h-54.98c-11.48,0-20.82,9.34-20.82,20.83v48.78c0,11.48,9.34,20.82,20.82,20.82h21.85v343.82c0,6.83,5.54,12.38,12.38,12.38h53.53c6.84,0,12.38-5.54,12.38-12.38v-88.59h254.36c6.84,0,12.38-5.54,12.38-12.38s-5.54-12.38-12.38-12.38h-254.36v-40.91h602.93v40.91h-290.83c-6.84,0-12.38,5.54-12.38,12.38s5.54,12.38,12.38,12.38h290.83v88.59c0,6.83,5.54,12.38,12.38,12.38h53.53c6.84,0,12.38-5.54,12.38-12.38v-343.83h21.85c11.48,0,20.82-9.34,20.82-20.82v-48.78c0-11.48-9.34-20.82-20.82-20.82h0ZM230.13,24.75h33.26c2.23,0,4.04,1.81,4.04,4.04v16.77h-41.34v-16.77c0-2.23,1.81-4.04,4.04-4.04ZM635.66,24.75h33.26c2.23,0,4.04,1.81,4.04,4.04v16.77h-41.34v-16.77c0-2.23,1.81-4.04,4.04-4.04ZM607.66,70.32h89.25c36.84,0,67.54,26.65,73.43,62.1h-236.12c5.88-35.48,36.51-62.1,73.43-62.1ZM508.43,157.17h287.7v18.98c0,1.75-1.42,3.16-3.16,3.16h-281.37c-1.75,0-3.16-1.42-3.16-3.16v-18.98ZM533.19,204.06h238.19v28.68h-238.19v-28.68ZM449.52,408.68l-151.18-151.18h302.37l-151.18,151.18ZM102.91,157.17h287.7v18.98c0,1.75-1.42,3.16-3.16,3.16H106.07c-1.75,0-3.16-1.42-3.16-3.16v-18.98ZM127.66,204.06h238.19v28.68H127.66v-28.68ZM51.86,257.49h211.48l40.92,40.92H51.86v-40.92ZM205.98,414.11l-5.63-9.2h137.75l-5.63,9.2c-7.54,12.31-21.19,19.96-35.62,19.96h-55.24c-14.43,0-28.08-7.65-35.62-19.96ZM205.98,468.03l-5.63-9.2h137.75l-5.63,9.2c-7.54,12.31-21.19,19.96-35.62,19.96h-55.24c-14.43,0-28.08-7.65-35.62-19.96ZM566.58,414.11l-5.63-9.2h137.75l-5.63,9.2c-7.54,12.31-21.19,19.96-35.62,19.96h-55.24c-14.43,0-28.08-7.65-35.62-19.96h0ZM566.58,468.03l-5.63-9.2h137.75l-5.63,9.2c-7.54,12.31-21.19,19.96-35.62,19.96h-55.24c-14.43,0-28.08-7.65-35.62-19.96h0ZM804.52,654.62h-28.78v-331.45h28.78v331.45ZM847.19,298.42h-145.11c-6.84,0-12.38,5.54-12.38,12.38s5.54,12.38,12.38,12.38h48.91v164.82h-41.8c1.8-2.22,3.47-4.57,4.97-7.03l8.93-14.58c4-6.54,4.16-14.76.41-21.45-3.11-5.54-8.51-9.34-14.63-10.48,1.92-2.33,3.7-4.8,5.29-7.4l8.93-14.58c4-6.54,4.16-14.76.41-21.45-3.75-6.69-10.84-10.85-18.51-10.85h-150.37c-7.67,0-14.76,4.16-18.51,10.85-3.75,6.69-3.59,14.91.41,21.45l8.93,14.58c1.6,2.61,3.37,5.07,5.29,7.4-6.12,1.14-11.53,4.94-14.64,10.48-3.75,6.69-3.59,14.91.41,21.45l8.93,14.58c1.51,2.47,3.17,4.81,4.97,7.03h-201.84c1.8-2.22,3.47-4.57,4.97-7.03l8.93-14.58c4-6.54,4.16-14.76.41-21.45-3.11-5.54-8.51-9.34-14.63-10.48,1.92-2.33,3.7-4.8,5.29-7.4l8.93-14.58c4-6.54,4.16-14.76.41-21.45-3.75-6.69-10.84-10.85-18.51-10.85h-150.37c-7.67,0-14.76,4.16-18.51,10.85s-3.59,14.91.41,21.45l8.93,14.58c1.6,2.61,3.37,5.07,5.29,7.4-6.12,1.14-11.53,4.94-14.64,10.48-3.75,6.69-3.59,14.91.41,21.45l8.93,14.58c1.51,2.47,3.17,4.81,4.97,7.03h-41.79v-49.22c0-6.83-5.54-12.38-12.38-12.38s-12.38,5.54-12.38,12.38v215.84h-28.78v-331.45h28.78v57.85c0,6.83,5.54,12.38,12.38,12.38s12.38-5.54,12.38-12.38v-57.85h180.95l111.76,111.76c2.32,2.32,5.47,3.63,8.75,3.63s6.43-1.3,8.75-3.63l111.78-111.78c.1,0,.19.01.29.01h73.99c6.84,0,12.38-5.54,12.38-12.38s-5.54-12.38-12.38-12.38h-49.54l40.92-40.92h211.48v40.92Z"/>
</svg>