<?xml version="1.0" encoding="UTF-8"?>
<svg id="Layer_1" xmlns="http://www.w3.org/2000/svg" viewBox="0 0 651.83 625.28">
  <path d="M467.14,226.95h9.92c5.28,0,9.55-4.27,9.55-9.55s-4.27-9.55-9.55-9.55h-5v-17.14c0-5.28-4.27-9.55-9.55-9.55s-9.55,4.27-9.55,9.55v22.29c0,7.69,6.36,13.95,14.17,13.95Z"/>
  <path d="M425.54,206.01c5.27,0,9.55-4.27,9.55-9.55v-8.44c0-5.27-4.28-9.55-9.55-9.55s-9.55,4.28-9.55,9.55v8.44c0,5.28,4.27,9.55,9.55,9.55Z"/>
  <path d="M513.5,206.01c5.27,0,9.55-4.27,9.55-9.55v-8.44c0-5.27-4.28-9.55-9.55-9.55s-9.55,4.28-9.55,9.55v8.44c0,5.28,4.27,9.55,9.55,9.55Z"/>
  <path d="M432.31,250.32c10.33,9.9,23.91,14.85,37.48,14.85s27.15-4.95,37.48-14.85c3.81-3.65,3.94-9.69.29-13.5-3.65-3.8-9.69-3.93-13.5-.28-13.38,12.82-35.15,12.82-48.54,0-3.8-3.65-9.85-3.52-13.5.29-3.65,3.8-3.52,9.85.29,13.5Z"/>
  <path d="M454.14,383.49c-1.78-1.78-4.24-2.8-6.76-2.8s-4.96,1.02-6.74,2.8c-1.79,1.78-2.8,4.24-2.8,6.75s1.02,4.98,2.8,6.75c1.78,1.78,4.24,2.8,6.74,2.8s4.98-1.02,6.76-2.8c1.77-1.77,2.8-4.23,2.8-6.75s-1.03-4.98-2.8-6.75Z"/>
  <path d="M503.15,383.49c-1.78-1.78-4.24-2.8-6.75-2.8s-4.98,1.02-6.76,2.8c-1.78,1.77-2.79,4.24-2.79,6.75s1.02,4.98,2.79,6.75,4.24,2.8,6.76,2.8,4.96-1.02,6.75-2.8c1.78-1.77,2.8-4.24,2.8-6.75s-1.02-4.97-2.8-6.75Z"/>
  <path d="M454.14,437.86c-1.78-1.77-4.24-2.79-6.76-2.79s-4.96,1.02-6.74,2.79c-1.79,1.78-2.8,4.25-2.8,6.76s1.02,4.97,2.8,6.75c1.78,1.78,4.24,2.8,6.74,2.8s4.98-1.02,6.76-2.8c1.77-1.77,2.8-4.24,2.8-6.75s-1.03-4.98-2.8-6.76Z"/>
  <path d="M496.4,435.07c-2.52,0-4.98,1.02-6.76,2.79-1.77,1.78-2.79,4.24-2.79,6.76s1.02,4.97,2.79,6.75c1.78,1.78,4.24,2.8,6.76,2.8s4.97-1.02,6.75-2.8,2.8-4.24,2.8-6.75-1.02-4.98-2.8-6.76c-1.78-1.77-4.24-2.79-6.75-2.79Z"/>
  <path d="M454.14,492.25c-1.78-1.77-4.24-2.78-6.76-2.78s-4.96,1.01-6.74,2.78c-1.79,1.79-2.8,4.24-2.8,6.76s1.02,4.96,2.8,6.74c1.78,1.79,4.24,2.8,6.74,2.8s4.98-1.02,6.76-2.8c1.77-1.78,2.8-4.24,2.8-6.74s-1.03-4.98-2.8-6.76Z"/>
  <path d="M447.38,543.83c-2.51,0-4.97,1.02-6.75,2.8s-2.8,4.24-2.8,6.75,1.01,4.98,2.8,6.76c1.78,1.77,4.24,2.78,6.75,2.78s4.98-1.02,6.76-2.78c1.77-1.79,2.8-4.24,2.8-6.76s-1.03-4.98-2.8-6.75c-1.78-1.78-4.24-2.8-6.76-2.8Z"/>
  <path d="M660.4,570.77c2.35-3.98,4.02-8.43,4.8-13.24.64-3.93-.47-7.91-3.03-10.93-.61-.72-1.29-1.36-2.02-1.93,2.48-4.08,4.24-8.68,5.06-13.67.64-3.92-.47-7.91-3.03-10.93-.61-.72-1.29-1.36-2.02-1.93,2.48-4.08,4.24-8.68,5.06-13.67.64-3.92-.47-7.91-3.03-10.93-.61-.72-1.29-1.36-2.02-1.93,2.48-4.08,4.24-8.69,5.06-13.67.64-3.92-.47-7.91-3.03-10.93-2.57-3.03-6.33-4.77-10.31-4.77h-24.65v-26.1c0-5.28-4.28-9.55-9.55-9.55s-9.55,4.27-9.55,9.55v26.1h-105.31c-3.98,0-7.74,1.74-10.3,4.76-2.58,3.03-3.69,7.01-3.04,10.95.82,4.98,2.58,9.58,5.06,13.67-.73.57-1.41,1.2-2.01,1.92-2.58,3.02-3.69,7.01-3.04,10.95.82,4.98,2.58,9.58,5.06,13.66-.73.57-1.41,1.2-2.01,1.92-2.58,3.03-3.69,7.02-3.04,10.95.82,4.98,2.58,9.58,5.06,13.67-.73.57-1.41,1.2-2.01,1.92-2.58,3.03-3.69,7.01-3.04,10.95.51,3.11,1.4,6.07,2.59,8.86h-63.1v-193.56c0-4.8,3.19-12.57,6.56-15.99l58.85-59.61c5.99-.96,11.77-2.54,17.29-4.65v2.59c0,11.15,7.72,22.87,17.95,27.27l72.12,31.01c3.17,1.36,6.4,6.27,6.4,9.73v28.39c0,5.27,4.28,9.55,9.55,9.55s9.55-4.28,9.55-9.55v-28.39c0-11.14-7.72-22.87-17.95-27.27l-72.12-31.01c-3.17-1.36-6.4-6.27-6.4-9.73v-12.78c16.83-11.86,29.31-29.48,34.49-49.97h5.82c14.32,0,25.97-11.63,25.97-25.92v-19.83c0-14.3-11.65-25.92-25.97-25.92h-3.16v-39.25c12.91-10.2,20.46-25.66,20.46-42.32,0-29.77-24.19-53.98-53.93-53.98-5.99,0-11.92,1-17.53,2.93-9.28-17.18-27.22-28.14-47.38-28.14s-38.1,10.96-47.38,28.14c-5.61-1.93-11.54-2.93-17.53-2.93-29.73,0-53.93,24.21-53.93,53.98,0,17.04,8.2,33.16,21.71,43.28v38.29h-4.41c-14.32,0-25.97,11.63-25.97,25.93v19.83c0,14.3,11.65,25.92,25.97,25.92h7.07c5.06,19.98,17.04,37.24,33.24,49.08v13.66c0,3.46-3.23,8.36-6.4,9.73l-72.12,31.01c-10.23,4.4-17.95,16.12-17.95,27.27v28.04c-18.07-15.53-40.45-24.82-64.1-26.69v-14.09c0-11.11-9.04-20.16-20.15-20.16h-52.99c-11.11,0-20.15,9.05-20.15,20.16v14.09c-24.8,1.95-48.23,12.06-66.73,28.98-15.18,13.88-26.09,31.46-31.85,50.84H23.1c-5.28,0-9.55,4.28-9.55,9.55s4.27,9.55,9.55,9.55h3.23v14.59c0,8.78,7.14,15.91,15.91,15.91h1.68v29.46c0,12.28,10,22.28,22.28,22.28v20.7H29.47c-8.78,0-15.91,7.14-15.91,15.91v27.06c0,8.77,7.14,15.91,15.91,15.91h527.7c5.28,0,9.55-4.28,9.55-9.55s-4.27-9.55-9.55-9.55H32.65v-20.7h613.63v20.7h-43.29c-5.28,0-9.55,4.27-9.55,9.55s4.27,9.55,9.55,9.55h46.47c8.78,0,15.91-7.14,15.91-15.91v-27.06c0-4.54-1.92-8.63-4.98-11.54ZM571.05,179.85c3.79,0,6.87,3.06,6.87,6.83v19.83c0,3.76-3.08,6.83-6.87,6.83h-3.21c.02-.76.06-1.51.06-2.27v-31.22h3.15ZM367.98,213.34c-3.79,0-6.87-3.06-6.87-6.83v-19.83c0-3.76,3.08-6.83,6.87-6.83h4.41v31.22c0,.76.04,1.51.06,2.27h-4.47ZM386.83,109.18c-10.52-6.27-17.05-17.76-17.05-30,0-19.24,15.63-34.89,34.83-34.89,6.21,0,12.31,1.66,17.64,4.81,2.52,1.49,5.58,1.74,8.3.68,2.73-1.06,4.81-3.3,5.67-6.1,4.53-14.71,17.9-24.6,33.29-24.6s28.76,9.89,33.29,24.6c.86,2.79,2.95,5.04,5.68,6.1,2.73,1.05,5.78.81,8.3-.68,5.34-3.15,11.43-4.81,17.64-4.81,19.21,0,34.83,15.65,34.83,34.89,0,11.94-6.01,22.93-16.07,29.39-2.74,1.76-4.39,4.78-4.39,8.04v32.1h-157.31v-31.32c0-3.36-1.77-6.47-4.66-8.2ZM391.48,211.07v-43.27h157.31v43.27c0,37.6-30.67,68.19-68.38,68.19h-20.55c-37.71,0-68.38-30.59-68.38-68.19ZM173.54,350.44c0-.59.47-1.06,1.05-1.06h52.99c.58,0,1.05.48,1.05,1.06v13.72h-55.09v-13.72ZM100.6,407.61c17.17-15.7,39.45-24.35,62.72-24.35h75.53c23.27,0,45.54,8.65,62.72,24.35,11.16,10.21,19.56,22.83,24.65,36.75H75.95c5.09-13.92,13.49-26.54,24.65-36.75ZM45.43,474.86v-11.41h311.32v11.41H45.43ZM92.66,566.39h-7.37v-20.7h7.37v20.7ZM316.88,566.39h-7.37v-20.7h7.37v20.7ZM177.78,526.6c-5.28,0-9.55,4.28-9.55,9.55s4.27,9.55,9.55,9.55h112.63v20.7H111.76v-20.7h21.47c5.28,0,9.55-4.28,9.55-9.55s-4.27-9.55-9.55-9.55h-67.02c-1.73,0-3.18-1.46-3.18-3.18v-29.46h276.13v29.46c0,1.73-1.46,3.18-3.18,3.18h-158.19ZM409.85,372.83v193.56h-73.87v-20.7c12.28,0,22.27-10,22.27-22.28v-29.46h1.68c8.78,0,15.91-7.14,15.91-15.91v-14.59h3.23c5.28,0,9.55-4.27,9.55-9.55s-4.27-9.55-9.55-9.55h-32.77c-3.39-11.42-8.58-22.21-15.38-31.99v-49.18c0-3.46,3.23-8.36,6.4-9.73l72.12-31.01c10.23-4.4,17.95-16.12,17.95-27.27v-3.06c5.34,2.14,10.94,3.75,16.73,4.81l11.76,12.1-33.96,34.39c-6.88,6.97-12.06,19.61-12.06,29.41ZM639.27,566.39h-123.87c-1.92-1.49-3.55-3.34-4.78-5.48h133.44c-1.23,2.14-2.86,3.99-4.78,5.48ZM636.16,541.81h-117.65c-3.29-1.64-6.04-4.22-7.9-7.43h133.45c-1.85,3.21-4.61,5.79-7.9,7.43ZM636.16,515.29h-117.65c-3.29-1.65-6.04-4.22-7.9-7.43h133.45c-1.85,3.21-4.61,5.79-7.9,7.43ZM636.16,488.76h-117.65c-3.29-1.64-6.04-4.22-7.9-7.43h133.45c-1.85,3.21-4.61,5.79-7.9,7.43Z"/>
  <path d="M180.5,241.51h22.84c11.65,0,21.14,9.5,21.14,21.18s-9.48,21.17-21.14,21.17h-22.26c-5.28,0-9.55,4.28-9.55,9.55s4.27,9.55,9.55,9.55h22.26c22.18,0,40.23-18.06,40.23-40.27s-18.05-40.27-40.23-40.27h-22.84c-5.28,0-9.55,4.28-9.55,9.55s4.27,9.55,9.55,9.55Z"/>
  <path d="M118.08,241.51h26.8c5.27,0,9.55-4.27,9.55-9.55s-4.28-9.55-9.55-9.55h-26.8c-13.64,0-24.74-11.11-24.74-24.79s11.1-24.79,24.74-24.79h30.26c5.28,0,9.55-4.28,9.55-9.55s-4.27-9.55-9.55-9.55h-30.26c-24.17,0-43.84,19.68-43.84,43.88s19.66,43.88,43.84,43.88Z"/>
  <path d="M184.19,189.54c5.28,0,9.55-4.28,9.55-9.55v-5.54c0-7.59,6.17-13.77,13.75-13.77h55.17c20.59,0,37.35-16.77,37.35-37.38s-16.75-37.38-37.35-37.38h-19.18c-5.28,0-9.55,4.27-9.55,9.55s4.27,9.55,9.55,9.55h19.18c10.06,0,18.25,8.2,18.25,18.29s-8.19,18.29-18.25,18.29h-55.17c-18.11,0-32.84,14.75-32.84,32.87v5.54c0,5.27,4.28,9.55,9.55,9.55Z"/>
</svg>