<?xml version="1.0" encoding="UTF-8"?>
<svg id="Layer_1" xmlns="http://www.w3.org/2000/svg" viewBox="0 0 685.83 657.9">
  <defs>
    <style>
      .cls-1 {
        fill: #abebff;
      }

      .cls-2 {
        fill: #ffe2b8;
      }

      .cls-3 {
        fill: #cce9f2;
      }

      .cls-4 {
        fill: #def9ff;
      }

      .cls-5 {
        fill: #e4f3f7;
      }

      .cls-6 {
        fill: #5a3483;
      }

      .cls-7 {
        fill: #e95428;
      }
    </style>
  </defs>
  <path class="cls-4" d="M342.36,477.58h22.08c3.68,0,6.7,3.01,6.7,6.7v18.7c0,3.68-3.01,6.7-6.7,6.7h-11.81v41.04c0,7.37-6.03,13.4-13.4,13.4h-10.04v41.87h195.76c-7.42-4.38-12.82-11.91-14.31-20.99-.19-1.21.15-2.45.94-3.39.8-.94,1.96-1.48,3.19-1.48h14.43c-9.58-3.76-16.8-12.31-18.56-23.05-.2-1.21.15-2.45.94-3.39s1.96-1.48,3.19-1.48h14.43c-9.58-3.77-16.8-12.31-18.55-23.05-.2-1.21.14-2.45.94-3.39.79-.94,1.96-1.48,3.19-1.48h14.43c-9.58-3.76-16.8-12.31-18.55-23.05-.2-1.21.14-2.45.94-3.39s1.96-1.48,3.19-1.48h120.85v-114.26c0-7.67-5.76-16.44-12.81-19.46l-75.88-32.62c-7.04-3.03-12.81-11.79-12.81-19.46v-18.8c-12.48,7.67-27.17,12.09-42.91,12.09h-21.62c-16.29,0-31.46-4.76-44.22-12.93v19.64c0,7.68-5.76,16.44-12.81,19.46l-75.88,32.62c-7.04,3.03-12.8,11.79-12.8,19.46v54.99c8.76,11.87,15.16,25.58,18.49,40.46Z"/>
  <path class="cls-1" d="M339.24,564.11h-10.04v41.87h22.12v-49.52c-2.16,4.51-6.77,7.65-12.08,7.65Z"/>
  <g>
    <path class="cls-2" d="M387.6,222.08v-42.9h-14.69c-9.54,0-17.28,7.72-17.28,17.24v20.86c0,9.52,7.74,17.23,17.28,17.23h15.63c-.62-4.06-.94-8.2-.94-12.43Z"/>
    <path class="cls-2" d="M586.58,179.19h-13.36v42.9c0,4.22-.32,8.38-.94,12.43h14.31c9.54,0,17.28-7.72,17.28-17.23v-20.86c0-9.52-7.74-17.24-17.28-17.24Z"/>
    <path class="cls-2" d="M387.6,166.51v55.57c0,45.17,36.71,81.79,82,81.79h21.62c45.29,0,82-36.62,82-81.79v-55.57h-185.62Z"/>
  </g>
  <path class="cls-4" d="M594.74,83.32c0-25.82-20.9-46.75-46.69-46.75-8.64,0-16.72,2.36-23.67,6.45-5.88-19.09-23.64-32.97-44.63-32.97s-38.75,13.88-44.62,32.97c-6.94-4.1-15.03-6.45-23.67-6.45-25.79,0-46.69,20.93-46.69,46.75,0,17.09,9.17,32.04,22.84,40.19v43h185.61v-43.82c12.95-8.31,21.53-22.83,21.53-39.37Z"/>
  <path class="cls-6" d="M236.34,393.2v-24.48c0-6.16-4.99-11.16-11.15-11.16h-55.75c-6.16,0-11.15,5-11.15,11.16v24.48h78.05Z"/>
  <path class="cls-5" d="M342.36,477.58c-10.81-48.29-53.83-84.38-105.31-84.38h-79.47c-51.48,0-94.51,36.09-105.31,84.38h290.09Z"/>
  <path class="cls-3" d="M94.56,477.58c10.8-48.29,53.83-84.38,105.31-84.38h-42.29c-51.48,0-94.51,36.09-105.31,84.38h42.28Z"/>
  <path class="cls-6" d="M65.44,564.11h27.84v41.87h-27.84v-41.87Z"/>
  <path class="cls-6" d="M301.35,564.11h27.84v41.87h-27.84v-41.87Z"/>
  <path class="cls-5" d="M42,509.68v41.04c0,7.37,6.03,13.4,13.4,13.4h283.84c7.37,0,13.4-6.03,13.4-13.4v-41.04H42Z"/>
  <path class="cls-3" d="M84.39,550.72v-41.04h-42.39v41.04c0,7.37,6.03,13.4,13.4,13.4h42.39c-7.37,0-13.4-6.03-13.4-13.4Z"/>
  <path class="cls-7" d="M371.14,502.98c0,3.68-3.01,6.7-6.7,6.7H30.19c-3.68,0-6.7-3.01-6.7-6.7v-18.7c0-3.68,3.01-6.7,6.7-6.7h334.26c3.68,0,6.7,3.01,6.7,6.7v18.7Z"/>
  <path class="cls-7" d="M529.21,524.3h127.97c9.58-3.76,16.8-12.31,18.56-23.05.19-1.21-.15-2.45-.94-3.39s-1.96-1.48-3.19-1.48h-156.83c-1.22,0-2.39.54-3.19,1.48s-1.14,2.18-.94,3.39c1.76,10.74,8.98,19.29,18.56,23.05Z"/>
  <path class="cls-6" d="M529.21,552.21h127.97c9.58-3.77,16.8-12.32,18.56-23.05.19-1.21-.15-2.45-.94-3.39-.8-.94-1.96-1.48-3.19-1.48h-156.83c-1.22,0-2.39.54-3.19,1.48-.8.93-1.14,2.17-.94,3.39,1.76,10.73,8.98,19.28,18.56,23.05Z"/>
  <path class="cls-7" d="M529.21,580.12h127.97c9.58-3.76,16.8-12.31,18.56-23.05.19-1.21-.15-2.45-.94-3.39s-1.96-1.48-3.19-1.48h-156.83c-1.22,0-2.39.54-3.19,1.48s-1.14,2.18-.94,3.39c1.76,10.74,8.98,19.29,18.56,23.05Z"/>
  <path class="cls-6" d="M524.95,605.98h136.47c7.42-4.38,12.82-11.91,14.31-20.99.19-1.21-.15-2.45-.94-3.39-.8-.94-1.96-1.48-3.19-1.48h-156.83c-1.22,0-2.39.54-3.19,1.48-.8.93-1.14,2.17-.94,3.39,1.49,9.08,6.88,16.61,14.31,20.99Z"/>
  <path class="cls-7" d="M675.78,641.15c0,3.68-3.01,6.7-6.7,6.7H16.74c-3.68,0-6.7-3.01-6.7-6.7v-28.47c0-3.68,3.01-6.7,6.7-6.7h652.34c3.68,0,6.7,3.01,6.7,6.7v28.47Z"/>
  <path d="M477.25,238.79h10.44c5.55,0,10.05-4.49,10.05-10.05s-4.49-10.05-10.05-10.05h-5.26v-18.04c0-5.55-4.49-10.05-10.05-10.05s-10.05,4.49-10.05,10.05v23.45c0,8.09,6.69,14.68,14.91,14.68Z"/>
  <path d="M433.48,216.76c5.55,0,10.05-4.49,10.05-10.05v-8.88c0-5.55-4.5-10.05-10.05-10.05s-10.05,4.5-10.05,10.05v8.88c0,5.55,4.49,10.05,10.05,10.05Z"/>
  <path d="M526.03,216.76c5.55,0,10.05-4.49,10.05-10.05v-8.88c0-5.55-4.5-10.05-10.05-10.05s-10.05,4.5-10.05,10.05v8.88c0,5.55,4.49,10.05,10.05,10.05Z"/>
  <path d="M440.6,263.38c10.87,10.42,25.15,15.63,39.44,15.63s28.56-5.21,39.43-15.63c4.01-3.84,4.14-10.2.3-14.21-3.84-4-10.2-4.14-14.2-.3-14.08,13.49-36.99,13.49-51.07,0-4-3.84-10.37-3.7-14.2.3-3.84,4-3.7,10.37.3,14.2Z"/>
  <path d="M463.57,403.49c-1.87-1.87-4.46-2.95-7.12-2.95s-5.22,1.07-7.1,2.95c-1.88,1.87-2.95,4.46-2.95,7.1s1.07,5.24,2.95,7.1c1.87,1.87,4.46,2.95,7.1,2.95s5.24-1.07,7.12-2.95c1.86-1.86,2.95-4.45,2.95-7.1s-1.08-5.24-2.95-7.1Z"/>
  <path d="M515.14,403.49c-1.87-1.87-4.46-2.95-7.1-2.95s-5.24,1.07-7.11,2.95c-1.87,1.86-2.94,4.46-2.94,7.1s1.07,5.24,2.94,7.1c1.87,1.87,4.46,2.95,7.11,2.95s5.22-1.07,7.1-2.95c1.87-1.86,2.95-4.46,2.95-7.1s-1.07-5.23-2.95-7.1Z"/>
  <path d="M463.57,460.7c-1.87-1.86-4.46-2.94-7.12-2.94s-5.22,1.07-7.1,2.94c-1.88,1.87-2.95,4.47-2.95,7.11s1.07,5.23,2.95,7.1c1.87,1.87,4.46,2.95,7.1,2.95s5.24-1.07,7.12-2.95c1.86-1.86,2.95-4.46,2.95-7.1s-1.08-5.24-2.95-7.11Z"/>
  <path d="M508.04,457.77c-2.65,0-5.24,1.07-7.11,2.94-1.86,1.87-2.94,4.46-2.94,7.11s1.07,5.23,2.94,7.1c1.87,1.87,4.46,2.95,7.11,2.95s5.23-1.07,7.1-2.95,2.95-4.46,2.95-7.1-1.07-5.24-2.95-7.11c-1.87-1.86-4.46-2.94-7.1-2.94Z"/>
  <path d="M463.57,517.93c-1.87-1.86-4.46-2.93-7.12-2.93s-5.22,1.07-7.1,2.93c-1.88,1.88-2.95,4.46-2.95,7.12s1.07,5.22,2.95,7.1c1.87,1.88,4.46,2.95,7.1,2.95s5.24-1.07,7.12-2.95c1.86-1.87,2.95-4.46,2.95-7.1s-1.08-5.24-2.95-7.12Z"/>
  <path d="M456.45,572.2c-2.64,0-5.23,1.07-7.1,2.95s-2.95,4.46-2.95,7.1,1.07,5.24,2.95,7.12c1.87,1.86,4.46,2.93,7.1,2.93s5.24-1.07,7.11-2.93c1.86-1.88,2.95-4.46,2.95-7.12s-1.08-5.24-2.95-7.1-4.46-2.95-7.11-2.95Z"/>
  <path d="M680.59,600.54c2.47-4.19,4.23-8.87,5.05-13.93.67-4.13-.49-8.32-3.19-11.5-.64-.76-1.36-1.43-2.13-2.03,2.61-4.3,4.46-9.14,5.32-14.38.67-4.13-.49-8.32-3.19-11.5-.64-.76-1.36-1.43-2.13-2.04,2.61-4.3,4.46-9.14,5.32-14.38.67-4.13-.49-8.32-3.19-11.5-.64-.76-1.36-1.43-2.13-2.03,2.61-4.3,4.46-9.14,5.32-14.38.67-4.13-.49-8.32-3.19-11.5-2.71-3.19-6.66-5.02-10.85-5.02h-25.93v-27.46c0-5.55-4.5-10.05-10.05-10.05s-10.05,4.49-10.05,10.05v27.46h-110.8c-4.19,0-8.14,1.83-10.84,5.01-2.71,3.19-3.88,7.38-3.2,11.52.86,5.24,2.71,10.08,5.32,14.38-.77.6-1.48,1.27-2.12,2.02-2.71,3.18-3.88,7.38-3.2,11.52.86,5.24,2.71,10.08,5.32,14.37-.77.6-1.48,1.27-2.12,2.02-2.71,3.19-3.88,7.38-3.2,11.52.86,5.24,2.71,10.08,5.32,14.38-.77.6-1.48,1.27-2.12,2.02-2.71,3.19-3.88,7.38-3.2,11.52.54,3.28,1.48,6.39,2.73,9.32h-66.39v-203.66c0-5.05,3.35-13.23,6.9-16.82l61.92-62.72c6.3-1.02,12.39-2.67,18.19-4.89v2.73c0,11.73,8.12,24.06,18.89,28.69l75.88,32.62c3.33,1.43,6.73,6.6,6.73,10.23v29.87c0,5.55,4.5,10.05,10.05,10.05s10.05-4.5,10.05-10.05v-29.87c0-11.73-8.12-24.06-18.88-28.69l-75.88-32.62c-3.33-1.43-6.73-6.6-6.73-10.23v-13.44c17.71-12.47,30.83-31.01,36.29-52.58h6.12c15.07,0,27.32-12.23,27.32-27.28v-20.86c0-15.04-12.25-27.28-27.32-27.28h-3.32v-41.3c13.58-10.73,21.53-27,21.53-44.53,0-31.32-25.46-56.8-56.74-56.8-6.31,0-12.54,1.05-18.45,3.09-9.77-18.07-28.64-29.61-49.85-29.61s-40.09,11.53-49.85,29.61c-5.91-2.04-12.14-3.09-18.45-3.09-31.28,0-56.74,25.48-56.74,56.8,0,17.93,8.62,34.89,22.84,45.54v40.28h-4.64c-15.06,0-27.32,12.24-27.32,27.28v20.86c0,15.04,12.26,27.28,27.32,27.28h7.44c5.32,21.02,17.93,39.18,34.97,51.64v14.37c0,3.64-3.4,8.8-6.73,10.23l-75.88,32.63c-10.77,4.63-18.89,16.96-18.89,28.69v29.5c-19.01-16.34-42.56-26.12-67.44-28.08v-14.83c0-11.69-9.51-21.21-21.2-21.21h-55.75c-11.69,0-21.2,9.52-21.2,21.21v14.83c-26.09,2.06-50.74,12.69-70.21,30.49-15.97,14.6-27.45,33.11-33.51,53.49H10.05c-5.55,0-10.05,4.5-10.05,10.05s4.49,10.05,10.05,10.05h3.4v15.35c0,9.24,7.51,16.74,16.74,16.74h1.76v30.99c0,12.92,10.52,23.44,23.44,23.44v21.78H16.74c-9.24,0-16.74,7.51-16.74,16.74v28.48c0,9.23,7.51,16.74,16.74,16.74h555.23c5.55,0,10.05-4.5,10.05-10.05s-4.49-10.05-10.05-10.05H20.09v-21.78h645.65v21.78h-45.54c-5.55,0-10.05,4.49-10.05,10.05s4.49,10.05,10.05,10.05h48.89c9.24,0,16.74-7.51,16.74-16.74v-28.48c0-4.78-2.02-9.08-5.24-12.14ZM586.58,189.23c3.99,0,7.23,3.22,7.23,7.19v20.86c0,3.96-3.24,7.18-7.23,7.18h-3.38c.02-.8.06-1.59.06-2.39v-32.85h3.32ZM372.92,224.47c-3.99,0-7.23-3.22-7.23-7.18v-20.86c0-3.96,3.24-7.19,7.23-7.19h4.64v32.85c0,.8.04,1.59.06,2.39h-4.7ZM392.74,114.88c-11.07-6.6-17.94-18.69-17.94-31.56,0-20.24,16.44-36.71,36.65-36.71,6.54,0,12.96,1.75,18.56,5.06,2.65,1.56,5.87,1.83,8.74.72,2.87-1.11,5.07-3.47,5.97-6.42,4.76-15.48,18.84-25.88,35.03-25.88s30.26,10.4,35.03,25.88c.91,2.94,3.1,5.3,5.98,6.42,2.87,1.11,6.09.85,8.73-.72,5.61-3.31,12.03-5.06,18.56-5.06,20.21,0,36.64,16.47,36.64,36.71,0,12.56-6.32,24.12-16.91,30.92-2.88,1.85-4.62,5.03-4.62,8.46v33.77h-165.52v-32.95c0-3.54-1.86-6.81-4.9-8.63ZM397.65,222.08v-45.53h165.52v45.53c0,39.56-32.27,71.75-71.95,71.75h-21.62c-39.67,0-71.95-32.19-71.95-71.75ZM168.33,368.72c0-.62.5-1.11,1.1-1.11h55.75c.61,0,1.1.5,1.1,1.11v14.44h-57.96v-14.44ZM91.59,428.87c18.07-16.52,41.5-25.62,65.99-25.62h79.47c24.48,0,47.92,9.1,65.99,25.62,11.75,10.74,20.58,24.02,25.94,38.67H65.66c5.36-14.65,14.19-27.93,25.93-38.67ZM33.53,499.63v-12h327.56v12H33.53ZM83.23,595.94h-7.75v-21.78h7.75v21.78ZM319.15,595.94h-7.75v-21.78h7.75v21.78ZM172.8,554.07c-5.55,0-10.05,4.5-10.05,10.05s4.49,10.05,10.05,10.05h118.51v21.78H103.33v-21.78h22.59c5.55,0,10.05-4.5,10.05-10.05s-4.49-10.05-10.05-10.05H55.4c-1.82,0-3.35-1.53-3.35-3.35v-30.99h290.54v30.99c0,1.82-1.53,3.35-3.35,3.35h-166.44ZM416.97,392.28v203.66h-77.73v-21.78c12.92,0,23.44-10.52,23.44-23.44v-30.99h1.76c9.24,0,16.74-7.51,16.74-16.74v-15.35h3.4c5.55,0,10.05-4.49,10.05-10.05s-4.49-10.05-10.05-10.05h-34.48c-3.57-12.01-9.03-23.37-16.18-33.66v-51.75c0-3.64,3.4-8.8,6.73-10.23l75.88-32.62c10.76-4.63,18.88-16.96,18.88-28.69v-3.22c5.61,2.25,11.51,3.95,17.6,5.07l12.37,12.74-35.73,36.19c-7.24,7.33-12.69,20.63-12.69,30.94ZM658.35,595.94h-130.34c-2.02-1.56-3.74-3.52-5.03-5.77h140.4c-1.29,2.25-3.01,4.2-5.03,5.77ZM655.08,570.08h-123.79c-3.46-1.73-6.36-4.44-8.31-7.82h140.41c-1.95,3.37-4.85,6.09-8.31,7.82ZM655.08,542.17h-123.79c-3.46-1.73-6.36-4.44-8.31-7.82h140.41c-1.95,3.38-4.85,6.09-8.31,7.82ZM655.08,514.25h-123.79c-3.46-1.73-6.36-4.44-8.31-7.82h140.41c-1.95,3.37-4.85,6.09-8.31,7.82Z"/>
  <path d="M175.65,254.11h24.03c12.26,0,22.24,9.99,22.24,22.28s-9.98,22.27-22.24,22.27h-23.43c-5.55,0-10.05,4.5-10.05,10.05s4.49,10.05,10.05,10.05h23.43c23.34,0,42.33-19,42.33-42.37s-18.99-42.37-42.33-42.37h-24.03c-5.55,0-10.05,4.5-10.05,10.05s4.49,10.05,10.05,10.05Z"/>
  <path d="M109.98,254.11h28.2c5.55,0,10.05-4.49,10.05-10.05s-4.5-10.05-10.05-10.05h-28.2c-14.35,0-26.03-11.69-26.03-26.08s11.68-26.08,26.03-26.08h31.83c5.55,0,10.05-4.5,10.05-10.05s-4.49-10.05-10.05-10.05h-31.83c-25.44,0-46.12,20.71-46.12,46.17s20.69,46.17,46.12,46.17Z"/>
  <path d="M179.54,199.43c5.55,0,10.05-4.5,10.05-10.05v-5.83c0-7.99,6.49-14.49,14.46-14.49h58.04c21.67,0,39.3-17.64,39.3-39.33s-17.63-39.33-39.3-39.33h-20.18c-5.55,0-10.05,4.49-10.05,10.05s4.49,10.05,10.05,10.05h20.18c10.59,0,19.2,8.63,19.2,19.24s-8.62,19.24-19.2,19.24h-58.04c-19.05,0-34.56,15.51-34.56,34.58v5.83c0,5.55,4.5,10.05,10.05,10.05Z"/>
</svg>