<svg id="Layer_1" data-name="Layer 1" xmlns="http://www.w3.org/2000/svg" viewBox="0 0 841.77 710.24"><defs><style>.cls-1{fill:#e4f3f7;}.cls-2{fill:#cce9f2;}.cls-3{fill:#e95428;}.cls-4{fill:#fff;}</style></defs><path class="cls-1" d="M587.9,230.36a165.86,165.86,0,1,0-331.72,0Z"/><path class="cls-2" d="M309.17,204C321.89,131.6,372.58,77.51,433.22,77.51H383.41c-60.64,0-111.32,54.09-124,126.45Z"/><rect class="cls-3" x="678.59" y="380.86" width="90.1" height="315.45"/><rect class="cls-3" x="73.85" y="380.86" width="90.1" height="315.45"/><g id="bgBC33"><path d="M61.64,296c-.49-4.78-.89-9.11-1.39-13.43-2.14-18.54-4.36-37.07-6.43-55.61-.67-6-2.73-10.84-8.68-13.35a5.64,5.64,0,0,1-2.2-2.14,12.87,12.87,0,0,1-1.39-3.12c-3.59-11,1.12-17.63,12.64-17.73q21-.18,42,0c2.7,0,3.54-.74,3.77-3.39,1-10.91,2.22-21.78,3.2-32.69.64-7.07,4-12,10.68-14.45,12.5-4.6,25-9.2,37.56-13.65a22.61,22.61,0,0,1,7-1.23c5.69-.13,9.93,3,11.89,8.49,1.88,5.24.62,10.4-3.83,13.84a29.36,29.36,0,0,1-7.21,3.95c-7.61,3-15.3,5.82-23,8.63-4.82,1.76-7.8,4.72-8.13,10.17-.41,6.62-1.18,13.21-1.82,20.08,1.36.08,2.28.19,3.2.19,13.24-.06,26.47-.21,39.71-.11a10.17,10.17,0,0,1,5.7,1.93A35.39,35.39,0,0,1,182,199.3c4.3,5.79,2.42,12.94-4.31,15.48-5.07,1.91-6.9,5.29-7.47,10.29-2.51,22.23-5.18,44.44-7.79,66.66-.12,1-.16,2-.25,3.26h58.05c-.83-4-1.78-7.75-2.39-11.57-4.5-27.92,15.84-52.58,44.19-53.12,21.23-.4,42.48-.21,63.72-.21q123.59,0,247.16,0a66.24,66.24,0,0,1,21.93,3.24c18.92,6.56,30.32,23.56,29.24,44-.25,4.72-1.34,9.4-2,14.1-.17,1.1-.34,2.21-.57,3.64,1.38.07,2.48.18,3.59.18,26.95,0,53.91,0,80.86.07,2.8,0,3.85-.58,3.71-3.61-.27-5.61-.2-11.24,0-16.85.08-2.31-.8-3.33-2.81-4.23-15-6.71-28.48-15.59-38.56-28.73-17.27-22.5-21.2-47.49-12.67-74.47,1.72-5.44,3.78-10.78,5.69-16.17,2.46-6.92,6.43-9.87,13.92-10,9-.11,18.1,0,27.14,0,22.67,0,45.34.09,68-.1,7.31-.06,12.39,3,15.75,9.26C799,174.6,798.78,199.29,788.4,224c-9.06,21.58-24.29,37.3-46.51,45.74-4.56,1.73-5.59,3.57-5.51,8.5.08,4.57.1,9.14.1,13.71,0,3.94,0,3.94,3.79,4,16.86,0,33.72-.1,50.57.24a78.39,78.39,0,0,1,18.34,2.28c21.24,5.61,35,26.77,32.24,48.71-2.91,22.94-21.52,40.44-43.78,40.57-36.95.21-73.91.08-110.86.09q-82.29,0-164.58,0c-.74,0-1.48.09-2.67.17.5,1.06.84,1.88,1.25,2.65,9.11,17.2,4.38,37.37-11.52,48.68-1.59,1.13-1.8,2-1,3.68,30.08,60.14,78.09,96.32,144.4,107.89,7.48,1.3,15.15,1.49,22.73,2.19a15,15,0,0,0,1.84-.11v-4l.06-127.44q0-6.82,6.88-6.82h15.14q4,0,4.06,3.95V679.59q0,3.76,3.65,3.77h35.71V414.81h3.4c6.38,0,12.77.12,19.14-.06,2.69-.08,4.1.42,3.86,3.49-.18,2.26.2,4.56.2,6.85q0,132.44,0,264.88a63,63,0,0,1-1,11c-.8,4.45-3.78,7.26-8.14,8.23a39.64,39.64,0,0,1-8.48,1c-19.52.07-39,0-58.57,0a28.85,28.85,0,0,1-4.55-.33c-6.79-1.08-10.64-4.93-11-11.81s-.28-13.9-.3-20.85c0-14.48,0-29,0-43.43v-3.7a266.93,266.93,0,0,1-115.15-28c-.33.85-.65,1.5-.84,2.19-5.72,20.62-17.82,37-33.65,51a24.65,24.65,0,0,1-5.52,3.52c-6.53,3.17-13,2.31-18.14-2.87a94.93,94.93,0,0,1-9.19-11.27A93.22,93.22,0,0,0,469,619.83c-1-.66-2.13-1.26-3.21-1.86-5.22-2.9-10.18-2.69-15.34.54s-10.4,6.5-16,8.66c-14.94,5.74-30.36,7.89-46.2,4a42.88,42.88,0,0,1-17.68-9c-3.7-3.14-7.34-6.36-11-9.59-2.37-2.11-2.89-2.1-5.06.38-1.57,1.79-3.12,3.6-4.73,5.35-9,9.84-26.91,13-38.35,3.12-2-1.73-4.38-3-6.49-4.66-1.92-1.48-3.43-1.2-5.26.31-9.43,7.75-20.12,8.94-31.49,5.49a29.31,29.31,0,0,1-15.45-11.22c-1.41-2-2.62-2.06-4.73-1.19a259.29,259.29,0,0,1-81.07,19.16c-2.45.17-2.4,1.46-2.4,3.18,0,19.43,0,38.86,0,58.29a58,58,0,0,1-.83,9.93c-.85,4.8-4,7.76-8.7,8.72a41.35,41.35,0,0,1-7.93.81c-19.52,0-39,0-58.57,0-.57,0-1.14,0-1.71,0-9.4-.41-14.15-5.18-14.23-14.61-.11-11.71,0-23.43,0-35.15q0-119.3,0-238.59c0-2.17.21-4.35.34-6.67H98.57V683.41h3.48c10.86,0,21.72-.09,32.57.06,2.81,0,3.44-.84,3.44-3.54Q138,549.78,138,419.62c0-5.75-.76-5,5-5,6.1,0,12.2.13,18.28-.07,2.71-.09,3.32.82,3.32,3.39q-.1,65,0,130v4.4a189.55,189.55,0,0,0,79.67-26.09c31.15-18.64,55-44.15,72.27-76.5-13.24-4.47-23.41-11.93-26.53-26.07-3-13.8,2.44-25.1,12-35.55-1.77-.08-2.94-.17-4.12-.17H149c-34.48,0-69,.18-103.43-.19A45.64,45.64,0,0,1,6.2,319.24c8.17-14.39,21-22,37.46-23.12,5.86-.39,11.76-.06,18-.06ZM471,361c.1.22.19.44.29.65h2.19q157.56,0,315.13-.08a49.22,49.22,0,0,0,13.22-1.83c8.88-2.51,13.4-8.95,13.4-18s-4.61-15.46-13.5-17.87a54.77,54.77,0,0,0-14.09-1.79q-147.28-.15-294.56-.07h-3.36c.92,16.62-5.78,29.3-18.73,38.95ZM421.22,256.36H275c-4.57,0-9.16-.06-13.69.38a19.18,19.18,0,0,0-17.75,18.14c-.72,9.35,5.29,17.54,14.88,20a31.59,31.59,0,0,0,7.62,1q33.57.11,67.14,0a5.33,5.33,0,0,0,3.32-1.15c13.44-12.44,34-12.79,48.77-.25a6.45,6.45,0,0,0,3.82,1.39q17.28.17,34.57,0a6.28,6.28,0,0,0,3.62-1.17A47.47,47.47,0,0,1,446.91,286c11.72-2.46,22.38-.74,31.22,7.93a6.5,6.5,0,0,0,5,2c29.23-.06,58.47,0,87.71-.06,3.14,0,6.29-.1,9.41-.4,10.79-1,18.09-9,18-19.58-.1-10.37-7.47-18.28-18.2-19.06-6.16-.45-12.37-.42-18.55-.43q-70.14,0-140.27,0ZM323,322.07h-4.31q-131.12,0-262.23.07c-4.09,0-8.2,0-12.27.34a19.36,19.36,0,0,0-17.53,17.15c-.93,9.93,4.8,18.65,14.26,20.95a48.13,48.13,0,0,0,11.32,1.05q142.68.08,285.37,0h3.68C328.67,351,321.43,338.58,323,322.06ZM79.35,217.54c0,.79,0,1.26,0,1.72,2.94,24.46,5.92,48.92,8.8,73.39.24,2.08.77,2.92,3.07,2.9,13.89-.11,27.79-.05,41.68-.06.73,0,1.47-.12,2.4-.2,3.11-25.93,6.21-51.74,9.33-77.76H79.35ZM383.42,426.27a6.16,6.16,0,0,0-.81.42c-2.81,2.57-5.71,5.05-8.39,7.75A13.23,13.23,0,0,0,371,439a234.8,234.8,0,0,1-37.63,68.84c-37.86,47.53-86.64,77-146.5,87.82-7.28,1.32-14.68,2-22.11,3.07v14.24c1.3-.06,2.34,0,3.36-.17,8.67-1.17,17.45-1.85,26-3.66,81-17.17,140.36-62.86,178.44-136.32,3.31-6.38,6.25-12.82,6-20.23a9.62,9.62,0,0,1,.27-2c1.5-8,3-16,4.55-24.29Zm66.73,9.41c1.77,7,3.8,13.83,5.15,20.79,1,5.38,1.18,10.93,1.82,16.4a16.06,16.06,0,0,0,1.2,5.4A246.89,246.89,0,0,0,511.12,547q69.07,62.84,162.44,66.54c1.12,0,2.24,0,3.48,0V599.17c-1-.06-1.74-.07-2.49-.15C662.35,597.71,650,597.18,638,595A236.94,236.94,0,0,1,459.61,445.43c-1.89-5.08-5.35-7.4-9.46-9.73Zm-37.07-23c-2.95,0-5.91.18-8.85-.06-2.4-.19-3.6.78-4.54,2.86A117.09,117.09,0,0,0,389,466.39c.24,11.79,5.82,21,15.18,28.11,15.27,11.55,37.53,3.87,41.33-16.2,2-10.81,1.21-21.42-3.3-31.31-5.17-11.31-11.29-22.19-17.1-33.2a3.06,3.06,0,0,0-2.3-1.1c-3.23-.12-6.47-.05-9.7-.05Zm-56.69-30.51c0,.12,0,.23-.05.35-3.9.18-7.81.27-11.7.56-10.94.81-21.5,2.84-30.79,9.25a32.26,32.26,0,0,0-11.92,14.26c-5,11.87-.86,23.89,10.38,30.14A36.28,36.28,0,0,0,336,441.1c22.81-3.61,39.29-16.33,50.81-36a7.18,7.18,0,0,0,.64-7c-1.52-3.69-2.5-7.59-3.95-11.31a3.74,3.74,0,0,0-2.47-2.07c-8.21-1-16.45-1.76-24.68-2.6Zm78.15,23c9.36,8.36,19,17.83,29.58,26.21,12.89,10.24,34.49,7,44.87-5.9a19.86,19.86,0,0,0,2.47-3.83c4.71-9.89,4.93-27-9.55-36.43C495.45,381,488.28,379,480.74,378c-13-1.61-25.61.88-38.14,3.87a3.81,3.81,0,0,0-2,2.34c-1,3-1.65,6.05-2.52,9.07-1,3.53-2.1,7-3.54,11.83ZM333.69,326.38c.19,12.54,6.2,21.35,15.81,28.26,11,7.91,23.61,11.75,36.5,14.92a3.59,3.59,0,0,0,2.59-.66q6.38-4.59,12.58-9.41a3,3,0,0,0,1.1-2.29c-2.08-13-4.54-25.92-10.74-37.73-4-7.68-9.16-14.52-16.65-19.2-11.22-7-24.94-5.33-33.33,4-5.71,6.37-7.63,14.11-7.86,22.07Zm145.87-2.79c-.32-2.54-.46-5.12-1-7.61-2.65-12.2-12.56-20.6-24.06-20.52-14.74.11-29.22,11.05-32.37,25.51-2.4,11-3.62,22.32-5.23,33.52a3.51,3.51,0,0,0,1.39,2.69q8.2,5.7,16.62,11.09a3.69,3.69,0,0,0,3.21,0c9.1-5.36,18.19-10.73,27.11-16.38a31.38,31.38,0,0,0,7.36-6.63c5.09-6.26,6.56-13.79,7-21.68Zm39.29,317.13c.32-.11.55-.12.67-.24,10.78-10.22,19.44-21.89,24.61-36,.72-1.95-.1-2.65-1.67-3.46-42.9-22-78.33-52.38-104.71-93-.41-.64-1.55-.81-2.35-1.19-.14.81-.61,1.74-.36,2.41,7.67,21.38,16.87,42,29.45,61.06,7.87,11.9,17.62,22.21,27.53,32.38,10.57,10.86,19.66,22.76,26,36.64a11.49,11.49,0,0,0,.86,1.35ZM478.07,447.61a217.23,217.23,0,0,0,40.66,63.23,219.52,219.52,0,0,0,102.08,63.34A211.22,211.22,0,0,0,677,582.59V569.65c-4.29-.27-8.37-.46-12.44-.81s-8.17-.69-12.21-1.32c-58-8.93-104.4-37.22-139.34-84.31A201.31,201.31,0,0,1,492.8,448.8c-.39-.83-1.48-1.92-2.23-1.91-4.07.06-8.13.43-12.52.71ZM164.55,581.89a221.35,221.35,0,0,0,183.6-130.16c-4.24.49-7.91,1.22-11.58,1.23-2.72,0-3.94,1.05-5.15,3.34C303.11,509.66,260.09,545.18,202,561.88c-11.27,3.24-23.13,4.46-34.7,6.68-1,.18-2.58.87-2.61,1.39-.22,3.86-.12,7.74-.12,11.95Zm560.2-414.43v.13c-6.19,0-12.38-.06-18.57,0s-12.57.08-18.84.47c-5.2.32-7.51,2.48-8.6,7.59a62.88,62.88,0,0,0-1.15,8.76c-.44,6.46-.37,6.47,5.83,8,11.45,2.8,22.84,3.82,34.34-.07,4.7-1.59,9.52-.64,14.34.57,4.57,1.15,9.39,2.3,14,2,7.36-.51,14.65-2.19,21.94-3.56.58-.11,1.35-1.67,1.27-2.48-.38-4-1-7.93-1.54-11.89-.94-7.52-3.16-9.5-10.74-9.5ZM447,601.23c-.22-.35-.49-.84-.82-1.28a128,128,0,0,1-16-29.53c-7.4-18.46-12-37.68-15.46-57.21-.63-3.58-1-3.86-5.42-3.66-1.17,35.5-2.9,71-1.5,106.8,15-.73,27.57-6.58,39.25-15.13ZM273.78,607a12.1,12.1,0,0,0,1.55.51c5.52.86,10.51,0,14.89-3.89,5.81-5.17,12.35-6.32,19.61-3a4.27,4.27,0,0,0,3.48-.65,162.8,162.8,0,0,0,30-28c19.55-23.14,33.09-49.63,43.23-78,.77-2.15-.19-3.32-1.65-4.56-27.43,48.23-66,85.67-111.14,117.57Zm45.22-.83c6.63,7.43,15.53,5,19.95-.39,1.57-1.91,3.19-3.79,4.87-5.6,2.64-2.85,5.76-5.58,9.67-5.52,4.34.07,6.26-2.25,8-5.41.56-1,1.24-1.91,1.86-2.88,15.9-24.92,25.86-52.24,32.57-80.86.86-3.67.85-3.67-2.6-5.47-15.77,41.63-38,78.76-74.35,106.12Zm79.9,10c.4-30.64.79-61,1.18-90.64-4.56,11.75-8.76,24.31-14.26,36.29s-12.34,23.54-18.7,35.48c9.27,7.76,17.4,18.68,31.77,18.87ZM688.39,223.13C691.53,235,711,247.3,725.2,246.38c13.55-.88,31.65-13.86,32.91-23.4-23.18-4.81-46.38-5.18-69.71.15ZM422.89,510.54c.08.71.12,1.28.22,1.83,3.2,18.5,7.51,36.71,14.41,54.22,4.34,11,9.6,21.56,17.17,30.78a4.68,4.68,0,0,0,2.95,1.74,32.2,32.2,0,0,1,17,5.23c6.71,4.47,13,9.53,19.49,14.35.75.56,1.41,1.22,2.11,1.84-3.48-4.75-7.46-9-11.28-13.32-8-9.14-16.58-17.91-23.84-27.64C445.9,559.18,436,536,427.28,512.22c-.88-2.41-2-3-4.38-1.68Zm-27.75-125a16.52,16.52,0,0,0,17.11,16.54c9.48-.11,16.14-6.83,16.17-16.32,0-9.66-7-17-16.26-17a16.92,16.92,0,0,0-17,16.8Zm9.92-63.35,3.32,5.36c.54-2.23.89-3.7,1.29-5.36Z"/><path d="M251.27,203.52c4.81-40.68,22.06-74.87,51.2-103.16s64.32-43.46,104.6-47.54V26.18c-2.1,0-4.14.07-6.18,0-3.13-.14-6.33,0-9.36-.68-6.83-1.47-10.69-7.11-10-13.9S387.1.16,394,.1q27-.23,54,0c6.79,0,11.57,4.79,12.3,11.56.71,6.47-3,12.25-9.5,13.71-3.47.79-7.17.6-10.77.79-1.68.09-3.38,0-5.22,0V52.68c49.68,5.44,90.67,26.93,121.57,66.68a163.16,163.16,0,0,1,34.14,84H565.07c-.64-2.93-1.19-6-2-9C547.44,133.64,509.24,95.23,448,81.72c-44.53-9.82-84.6,2.61-119.55,31.12-27.9,22.76-44.07,52.74-50.78,87.93-.43,2.24-1.12,3-3.41,2.93-6.66-.15-13.33,0-20-.06-.93,0-1.86-.08-3-.13Z"/><path d="M432.35,108.25c29,2.11,52.69,12,71.88,32.05a113.59,113.59,0,0,1,16.91,22.92c3,5.32,3.87,10.74,0,16.08-4.23,5.83-11.2,7.28-17.08,3.13a22.18,22.18,0,0,1-6.07-6.65c-15.08-25.59-37.71-38.62-67-41a33.47,33.47,0,0,1-9.91-2.38c-4.84-2-6.8-6-6.65-11.24s2.38-9,7.2-10.59c3.91-1.32,8.1-1.8,10.72-2.35Z"/><path class="cls-3" d="M421.22,256.36q70.14,0,140.27,0c6.19,0,12.39,0,18.55.43,10.72.77,18.1,8.68,18.2,19.06.1,10.55-7.2,18.55-18,19.58-3.12.3-6.27.4-9.41.4-29.24,0-58.47,0-87.71.06a6.5,6.5,0,0,1-5-2c-8.84-8.66-19.5-10.39-31.22-7.93a47.71,47.71,0,0,0-19.66,8.72,6.42,6.42,0,0,1-3.62,1.17q-17.28.13-34.57,0a6.45,6.45,0,0,1-3.82-1.39c-14.79-12.55-35.34-12.19-48.77.25a5.27,5.27,0,0,1-3.32,1.15q-33.57.11-67.14,0a31.16,31.16,0,0,1-7.62-1c-9.59-2.45-15.6-10.64-14.88-20a19.18,19.18,0,0,1,17.75-18.14c4.53-.44,9.13-.38,13.69-.38q73.14,0,146.27,0Z"/><path class="cls-3" d="M79.35,217.54h65.29c-3.12,26-6.22,51.82-9.33,77.76-.94.08-1.67.2-2.4.2-13.89,0-27.79-.05-41.68.06-2.3,0-2.83-.82-3.07-2.9q-4.32-36.71-8.8-73.39a16.11,16.11,0,0,1,0-1.72Z"/><path class="cls-3" d="M356.39,382.13c8.23.84,16.47,1.62,24.68,2.6a3.77,3.77,0,0,1,2.47,2.07c1.45,3.72,2.43,7.63,3.95,11.31a7.19,7.19,0,0,1-.64,7c-11.51,19.68-28,32.39-50.81,36a36.35,36.35,0,0,1-23.73-4.41c-11.24-6.25-15.34-18.28-10.38-30.14a32.33,32.33,0,0,1,11.92-14.26c9.29-6.41,19.86-8.44,30.79-9.25,3.89-.29,7.8-.38,11.7-.56,0-.12,0-.23.05-.35Z"/><path class="cls-3" d="M434.54,405.15c1.44-4.8,2.53-8.3,3.54-11.83.86-3,1.54-6.09,2.52-9.07a3.81,3.81,0,0,1,2-2.34c12.53-3,25.14-5.48,38.14-3.87,7.54.93,14.71,3,21.17,7.17,14.48,9.44,14.26,26.55,9.55,36.43a19.86,19.86,0,0,1-2.47,3.83c-10.37,12.91-32,16.14-44.87,5.9-10.55-8.38-20.22-17.85-29.58-26.21Z"/><path class="cls-3" d="M518.85,640.72a10.32,10.32,0,0,1-.86-1.35c-6.3-13.88-15.38-25.79-26-36.64-9.91-10.17-19.66-20.47-27.53-32.38-12.58-19-21.78-39.67-29.45-61.06-.24-.67.23-1.6.36-2.41.8.39,1.93.56,2.35,1.19,26.38,40.6,61.81,71,104.71,93,1.57.81,2.39,1.5,1.67,3.46-5.18,14.07-13.83,25.74-24.61,36-.12.12-.35.13-.67.24Z"/><path class="cls-3" d="M478.07,447.61c4.38-.28,8.45-.65,12.52-.71.75,0,1.83,1.08,2.23,1.91a202.35,202.35,0,0,0,20.25,34.41c34.94,47.09,81.3,75.38,139.34,84.31,4,.62,8.13,1,12.21,1.32s8.15.53,12.44.81V582.6a210.82,210.82,0,0,1-56.23-8.41A222.07,222.07,0,0,1,478.09,447.62Z"/><path class="cls-3" d="M164.55,581.89c0-4.21-.1-8.09.12-11.95,0-.52,1.65-1.2,2.61-1.39,11.57-2.22,23.43-3.44,34.7-6.68,58.11-16.7,101.13-52.21,129.44-105.58,1.21-2.29,2.44-3.33,5.15-3.34,3.67,0,7.34-.74,11.58-1.23a222.14,222.14,0,0,1-107.81,110,217.49,217.49,0,0,1-75.79,20.18Z"/><path class="cls-4" d="M724.75,167.46H757c7.59,0,9.8,2,10.74,9.5.5,4,1.17,7.92,1.54,11.89.08.81-.69,2.37-1.27,2.48-7.29,1.37-14.57,3-21.94,3.56-4.61.32-9.44-.83-14-2-4.82-1.21-9.65-2.16-14.34-.57-11.5,3.89-22.89,2.87-34.34.07-6.2-1.52-6.27-1.52-5.83-8a62.68,62.68,0,0,1,1.15-8.76c1.09-5.11,3.4-7.27,8.6-7.59,6.26-.38,12.56-.39,18.84-.47s12.38,0,18.57,0v-.13Z"/><path class="cls-3" d="M447,601.23c-11.68,8.55-24.24,14.4-39.25,15.13-1.4-35.78.34-71.3,1.5-106.8,4.44-.19,4.79.08,5.42,3.66,3.45,19.53,8.07,38.75,15.46,57.21a128.62,128.62,0,0,0,16,29.53c.33.44.6.93.82,1.28Z"/><path class="cls-3" d="M273.78,607c45.15-31.9,83.72-69.34,111.14-117.57,1.46,1.23,2.42,2.41,1.65,4.56-10.14,28.37-23.67,54.86-43.23,78a163.43,163.43,0,0,1-30,28,4.23,4.23,0,0,1-3.48.65c-7.26-3.29-13.81-2.14-19.61,3-4.38,3.9-9.36,4.76-14.89,3.89a12.1,12.1,0,0,1-1.55-.51Z"/><path class="cls-3" d="M398.9,616.21c-14.36-.19-22.5-11.11-31.77-18.87,6.36-11.94,13.16-23.42,18.7-35.48s9.7-24.53,14.26-36.29c-.39,29.65-.78,60-1.18,90.64Z"/><path class="cls-3" d="M688.39,223.13c23.33-5.33,46.54-5,69.71-.15-1.26,9.54-19.36,22.52-32.91,23.4-14.23.93-33.67-11.37-36.81-23.25Z"/><path class="cls-3" d="M395.14,385.59a16.92,16.92,0,0,1,17-16.8c9.28,0,16.3,7.36,16.26,17,0,9.49-6.69,16.2-16.17,16.32a16.52,16.52,0,0,1-17.11-16.54Z"/><path class="cls-4" d="M405.06,322.24h4.61c-.4,1.66-.75,3.13-1.29,5.36-1.27-2-2.13-3.43-3.32-5.36Z"/></g></svg>