<?xml version="1.0" encoding="UTF-8"?>
<svg id="Layer_1" xmlns="http://www.w3.org/2000/svg" viewBox="0 0 833.82 703.53">
  <g id="bgBC33">
    <g>
      <path d="M88.16,293.23c-.49-4.73-.89-9.02-1.38-13.3-2.12-18.36-4.32-36.72-6.37-55.09-.66-5.93-2.7-10.74-8.59-13.22-.88-.37-1.63-1.29-2.18-2.12-.61-.93-1.03-2.02-1.38-3.09-3.55-10.84,1.1-17.46,12.52-17.56,13.87-.12,27.74-.14,41.6-.01,2.67.02,3.51-.74,3.73-3.36.94-10.8,2.19-21.58,3.17-32.38.63-7,3.95-11.87,10.58-14.31,12.39-4.55,24.77-9.11,37.21-13.52,2.18-.77,4.59-1.17,6.9-1.22,5.64-.13,9.84,3,11.78,8.41,1.86,5.19.61,10.3-3.79,13.71-2.12,1.64-4.63,2.92-7.14,3.91-7.54,2.97-15.16,5.77-22.77,8.54-4.77,1.74-7.72,4.68-8.06,10.07-.41,6.56-1.17,13.09-1.81,19.89,1.35.08,2.26.19,3.17.19,13.11-.06,26.22-.21,39.33-.11,1.91.01,4.12.76,5.64,1.91,2.61,1.96,5.12,4.24,7.06,6.85,4.26,5.74,2.39,12.82-4.27,15.34-5.02,1.9-6.84,5.24-7.4,10.19-2.48,22.02-5.14,44.02-7.72,66.03-.12,1-.15,2-.25,3.23h57.5c-.83-3.95-1.76-7.68-2.37-11.46-4.45-27.65,15.69-52.08,43.77-52.62,21.03-.4,42.08-.21,63.11-.21,81.61,0,163.22.04,244.82.03,7.42,0,14.69.77,21.72,3.21,18.74,6.5,30.04,23.34,28.96,43.55-.25,4.68-1.32,9.31-2.02,13.97-.16,1.09-.34,2.18-.56,3.61,1.36.07,2.46.18,3.55.18,26.7,0,53.4-.03,80.1.06,2.77,0,3.81-.57,3.67-3.57-.27-5.55-.2-11.13-.01-16.69.08-2.29-.79-3.3-2.78-4.19-14.84-6.64-28.21-15.44-38.19-28.46-17.11-22.29-21-47.04-12.55-73.76,1.71-5.39,3.74-10.68,5.63-16.01,2.43-6.85,6.37-9.78,13.79-9.86,8.96-.11,17.92,0,26.89,0,22.45,0,44.91.08,67.36-.09,7.24-.06,12.28,2.94,15.6,9.18,12.75,23.91,12.57,48.37,2.29,72.86-8.97,21.38-24.06,36.95-46.07,45.31-4.51,1.71-5.54,3.53-5.45,8.42.08,4.53.1,9.05.1,13.58,0,3.91-.04,3.9,3.75,3.91,16.7.04,33.4-.1,50.09.23,6.08.12,12.31.71,18.17,2.26,21.04,5.56,34.69,26.52,31.93,48.25-2.88,22.72-21.31,40.06-43.37,40.19-36.6.21-73.21.08-109.82.09-54.34,0-108.68,0-163.03.02-.73,0-1.47.09-2.64.17.49,1.05.83,1.86,1.24,2.63,9.02,17.04,4.34,37.01-11.41,48.22-1.57,1.12-1.78,1.97-.95,3.65,29.8,59.57,77.35,95.41,143.04,106.87,7.41,1.29,15,1.48,22.51,2.16.45.04.92-.05,1.82-.11,0-1.35,0-2.63,0-3.92.02-42.08.04-84.16.06-126.24q0-6.75,6.82-6.75c5,0,10,0,15,0q4.02,0,4.02,3.92c0,35.95,0,71.89,0,107.84,0,50.19,0,100.39,0,150.58q0,3.73,3.61,3.74c10.66,0,21.32,0,31.98,0h3.39v-266.02c1.35,0,2.36,0,3.37,0,6.32,0,12.65.12,18.96-.06,2.67-.08,4.06.42,3.83,3.46-.18,2.24.19,4.52.19,6.78.02,87.46.04,174.92,0,262.38,0,3.65-.35,7.35-.99,10.95-.79,4.4-3.74,7.19-8.07,8.15-2.74.61-5.6.93-8.4.94-19.34.07-38.68.02-58.02,0-1.5,0-3.03-.09-4.51-.32-6.72-1.07-10.54-4.88-10.93-11.7-.4-6.87-.28-13.77-.3-20.65-.04-14.34-.01-28.68-.01-43.02v-3.66c-20.04-.33-39.52-2.83-58.72-7.51-19.12-4.66-37.48-11.4-55.35-20.27-.33.84-.64,1.49-.83,2.17-5.66,20.43-17.65,36.69-33.33,50.48-1.61,1.41-3.53,2.54-5.47,3.48-6.47,3.14-12.91,2.29-17.97-2.84-3.36-3.4-6.3-7.27-9.1-11.16-7.03-9.77-15.41-18.06-25.58-24.52-1.03-.66-2.11-1.25-3.18-1.85-5.17-2.88-10.09-2.66-15.2.54-5.09,3.19-10.3,6.44-15.87,8.57-14.8,5.68-30.07,7.81-45.77,3.92-6.5-1.62-12.39-4.52-17.51-8.87-3.67-3.11-7.27-6.3-10.86-9.5-2.35-2.09-2.86-2.08-5.01.38-1.55,1.77-3.09,3.56-4.68,5.3-8.95,9.74-26.66,12.85-37.99,3.09-1.99-1.72-4.34-3.01-6.43-4.62-1.9-1.47-3.4-1.19-5.21.31-9.34,7.68-19.93,8.86-31.19,5.43-6.32-1.92-11.46-5.76-15.31-11.12-1.4-1.95-2.6-2.04-4.69-1.18-25.74,10.63-52.51,17-80.3,18.98-2.42.17-2.38,1.44-2.37,3.15.02,19.25.05,38.49-.03,57.74-.01,3.28-.25,6.61-.82,9.83-.84,4.75-3.92,7.69-8.62,8.64-2.57.52-5.23.8-7.86.8-19.34.05-38.68.01-58.02,0-.57,0-1.13,0-1.7-.03-9.32-.4-14.01-5.13-14.1-14.47-.1-11.6-.05-23.21-.05-34.81,0-78.78,0-157.56.01-236.34,0-2.15.21-4.3.33-6.61h25.5v265.67c1.42,0,2.43,0,3.44,0,10.76,0,21.51-.09,32.26.06,2.78.04,3.41-.83,3.41-3.5-.07-85.95-.06-171.9-.05-257.85,0-5.7-.75-4.92,4.94-4.96,6.04-.04,12.08.13,18.11-.07,2.68-.09,3.29.81,3.29,3.36-.07,42.93-.05,85.86-.05,128.78,0,1.3,0,2.59,0,4.36,28.51-2.86,54.7-11.35,78.92-25.84,30.85-18.46,54.51-43.73,71.59-75.78-13.11-4.43-23.19-11.82-26.28-25.82-3.02-13.67,2.42-24.87,11.86-35.21-1.75-.08-2.92-.17-4.08-.17-49.15,0-98.3,0-147.45-.01-34.15-.01-68.31.18-102.46-.19-34.93-.37-56.19-37.52-38.96-67.87,8.09-14.25,20.78-21.8,37.11-22.9,5.8-.39,11.65-.06,17.85-.06ZM493.7,357.61c.1.22.19.43.29.65.72,0,1.45,0,2.17,0,104.05,0,208.1.02,312.15-.08,4.38,0,8.89-.62,13.1-1.81,8.79-2.48,13.27-8.86,13.27-17.79,0-8.87-4.57-15.32-13.38-17.7-4.49-1.21-9.29-1.77-13.95-1.78-97.26-.1-194.52-.07-291.78-.07-1,0-2.01,0-3.32,0,.91,16.46-5.72,29.03-18.55,38.58ZM444.35,253.94c-48.3,0-96.59,0-144.89.01-4.52,0-9.07-.06-13.57.38-9.89.97-16.83,8.22-17.58,17.96-.71,9.26,5.24,17.38,14.74,19.81,2.44.63,5.03.96,7.55.97,22.17.07,44.33.06,66.5,0,1.11,0,2.5-.41,3.29-1.14,13.31-12.32,33.66-12.67,48.31-.25.97.82,2.51,1.36,3.78,1.38,11.41.1,22.83.1,34.24.01,1.21,0,2.64-.43,3.59-1.15,5.81-4.47,12.35-7.15,19.47-8.64,11.61-2.44,22.17-.73,30.92,7.85,1.48,1.45,2.95,1.98,4.97,1.98,28.96-.06,57.92-.03,86.88-.05,3.11,0,6.23-.1,9.32-.4,10.69-1.02,17.92-8.95,17.82-19.4-.1-10.28-7.4-18.11-18.03-18.88-6.1-.44-12.25-.42-18.38-.42-46.32-.03-92.63-.02-138.95-.02ZM347.03,319.03c-1.68,0-2.98,0-4.27,0-86.58.02-173.17.03-259.75.06-4.05,0-8.12,0-12.15.34-9.1.77-16.54,8.15-17.36,16.99-.92,9.84,4.76,18.47,14.12,20.75,3.61.88,7.47,1.04,11.22,1.04,94.22.05,188.45.04,282.67.04h3.64c-12.48-10.62-19.66-22.87-18.12-39.23ZM105.71,215.49c0,.78-.05,1.25,0,1.71,2.91,24.23,5.86,48.46,8.71,72.7.24,2.06.76,2.89,3.04,2.87,13.76-.11,27.53-.05,41.29-.06.73,0,1.45-.12,2.38-.2,3.08-25.69,6.15-51.25,9.24-77.02h-64.67ZM406.91,422.25c-.48.24-.67.3-.8.41-2.79,2.54-5.65,5.01-8.31,7.67-1.28,1.28-2.6,2.81-3.19,4.47-8.74,24.76-20.91,47.65-37.27,68.19-37.5,47.08-85.82,76.25-145.12,86.99-7.22,1.31-14.54,2.03-21.9,3.04v14.11c1.29-.06,2.32-.03,3.33-.17,8.59-1.16,17.29-1.83,25.75-3.62,80.27-17.01,139.04-62.27,176.76-135.04,3.27-6.32,6.19-12.7,5.97-20.04-.02-.65.15-1.31.27-1.96,1.48-7.94,2.98-15.89,4.51-24.06ZM473,431.57c1.75,6.94,3.77,13.7,5.1,20.59,1.03,5.33,1.17,10.83,1.81,16.24.21,1.81.37,3.78,1.19,5.35,13.47,25.73,30.8,48.54,52.3,68.1,45.62,41.49,99.28,63.44,160.9,65.91,1.11.04,2.22,0,3.45,0v-14.25c-.97-.06-1.72-.07-2.46-.15-12.08-1.29-24.31-1.82-36.22-4.02-80.59-14.89-148.12-71.54-176.69-148.12-1.88-5.03-5.3-7.33-9.37-9.64ZM436.28,408.74c-2.92,0-5.86.18-8.76-.06-2.38-.19-3.57.77-4.5,2.83-7.23,16.05-10.98,32.88-10.62,50.47.24,11.68,5.77,20.83,15.03,27.84,15.12,11.44,37.18,3.83,40.94-16.04,2.03-10.7,1.2-21.22-3.27-31.01-5.12-11.2-11.19-21.98-16.94-32.89-.32-.61-1.48-1.06-2.27-1.09-3.2-.12-6.41-.05-9.61-.05ZM380.13,378.52c-.02.11-.03.23-.05.34-3.86.18-7.73.27-11.59.55-10.84.8-21.3,2.81-30.5,9.16-5.27,3.64-9.34,8.21-11.81,14.12-4.91,11.75-.85,23.67,10.28,29.86,7.32,4.07,15.26,5.68,23.51,4.37,22.6-3.58,38.92-16.17,50.33-35.67,1.33-2.28,1.69-4.34.64-6.9-1.51-3.65-2.48-7.52-3.91-11.21-.35-.89-1.54-1.94-2.44-2.05-8.14-.97-16.29-1.75-24.45-2.58ZM457.54,401.32c9.27,8.28,18.85,17.66,29.3,25.96,12.77,10.14,34.17,6.94,44.44-5.84.94-1.17,1.8-2.44,2.44-3.79,4.67-9.79,4.89-26.73-9.46-36.09-6.4-4.17-13.5-6.17-20.97-7.1-12.88-1.59-25.37.87-37.78,3.83-.82.19-1.68,1.4-1.98,2.32-.96,2.95-1.64,6-2.49,8.99-1,3.49-2.08,6.97-3.51,11.72ZM357.65,323.29c.18,12.42,6.14,21.15,15.66,28,10.89,7.83,23.38,11.64,36.16,14.78.77.19,1.89-.16,2.56-.65,4.21-3.03,8.37-6.13,12.46-9.32.61-.47,1.2-1.57,1.09-2.27-2.06-12.88-4.5-25.67-10.64-37.37-3.99-7.61-9.07-14.38-16.5-19.02-11.12-6.94-24.7-5.28-33.02,3.99-5.66,6.31-7.55,13.97-7.78,21.87ZM502.14,320.53c-.32-2.52-.46-5.07-.99-7.54-2.62-12.08-12.45-20.41-23.83-20.32-14.6.11-28.94,10.94-32.07,25.27-2.38,10.93-3.59,22.11-5.18,33.2-.12.83.64,2.15,1.38,2.67,5.42,3.77,10.9,7.44,16.46,10.98.78.49,2.38.5,3.18.02,9.01-5.31,18.02-10.63,26.85-16.23,2.73-1.73,5.24-4.06,7.29-6.57,5.04-6.2,6.5-13.66,6.9-21.48ZM541.05,634.67c.32-.11.54-.12.66-.24,10.68-10.12,19.25-21.68,24.38-35.62.71-1.94-.1-2.63-1.66-3.43-42.49-21.78-77.59-51.89-103.72-92.11-.41-.63-1.53-.8-2.32-1.18-.14.8-.6,1.72-.36,2.39,7.6,21.18,16.71,41.64,29.18,60.48,7.8,11.79,17.46,22,27.27,32.07,10.47,10.75,19.47,22.54,25.71,36.29.22.49.58.91.86,1.34ZM500.66,443.38c9.78,23.23,23.23,44.1,40.28,62.63,27.86,30.29,61.59,51.27,101.12,62.74,18.14,5.27,36.69,8.07,55.7,8.33v-12.81c-4.25-.27-8.29-.45-12.32-.8-4.04-.34-8.09-.69-12.09-1.3-57.49-8.84-103.41-36.87-138.02-83.51-7.89-10.63-14.42-22.1-20.06-34.08-.39-.83-1.46-1.9-2.21-1.89-4.03.06-8.06.42-12.4.7ZM190.1,576.39c26.52-2.18,51.4-8.83,75.07-19.99,23.79-11.22,44.89-26.25,63.28-45.06,18.24-18.67,32.77-39.84,43.52-63.88-4.2.48-7.83,1.21-11.47,1.22-2.69.01-3.9,1.04-5.11,3.31-28.04,52.86-70.66,88.04-128.22,104.58-11.17,3.21-22.91,4.42-34.37,6.62-.95.18-2.56.86-2.59,1.38-.22,3.82-.12,7.67-.12,11.84ZM745.01,165.88s0,.09,0,.13c-6.13,0-12.27-.05-18.4.02-6.22.07-12.45.08-18.66.46-5.15.32-7.43,2.45-8.52,7.52-.61,2.85-.94,5.77-1.14,8.68-.44,6.4-.37,6.41,5.78,7.91,11.34,2.78,22.63,3.78,34.02-.07,4.65-1.57,9.43-.63,14.21.57,4.52,1.13,9.3,2.27,13.87,1.96,7.29-.51,14.51-2.17,21.73-3.52.58-.11,1.34-1.65,1.26-2.46-.37-3.94-1.03-7.85-1.53-11.78-.93-7.45-3.13-9.41-10.64-9.41-10.66,0-21.32,0-31.98,0ZM469.93,595.55c-.22-.34-.48-.83-.81-1.27-6.72-8.98-11.74-18.89-15.89-29.25-7.33-18.28-11.9-37.32-15.32-56.67-.63-3.54-.97-3.82-5.37-3.63-1.16,35.17-2.87,70.35-1.49,105.79,14.87-.72,27.31-6.52,38.88-14.99ZM298.3,601.29c.85.29,1.18.45,1.53.51,5.47.86,10.41,0,14.75-3.85,5.75-5.12,12.24-6.26,19.43-3,.89.4,2.56-.02,3.45-.65,11.13-7.91,20.95-17.26,29.75-27.68,19.37-22.93,32.77-49.16,42.82-77.26.76-2.13-.19-3.29-1.63-4.51-27.17,47.78-65.37,84.86-110.1,116.46ZM343.09,600.47c6.57,7.36,15.39,4.95,19.76-.38,1.55-1.89,3.16-3.75,4.83-5.55,2.62-2.83,5.7-5.53,9.58-5.47,4.3.07,6.2-2.23,7.95-5.36.55-.98,1.23-1.9,1.84-2.85,15.75-24.69,25.62-51.74,32.26-80.1.85-3.64.84-3.64-2.57-5.42-15.62,41.23-37.64,78.01-73.65,105.12ZM422.24,610.39c.4-30.35.79-60.41,1.17-89.78-4.51,11.64-8.68,24.08-14.12,35.94-5.48,11.95-12.22,23.32-18.52,35.15,9.19,7.68,17.24,18.5,31.47,18.69ZM709,221.02c3.11,11.77,22.37,23.94,36.46,23.03,13.42-.87,31.35-13.73,32.6-23.18-22.96-4.76-45.94-5.13-69.05.15ZM446,505.72c.08.71.12,1.26.22,1.81,3.17,18.32,7.44,36.36,14.27,53.71,4.3,10.92,9.51,21.35,17.01,30.49.69.84,1.91,1.69,2.92,1.73,6.11.2,11.85,1.86,16.83,5.18,6.64,4.43,12.89,9.44,19.3,14.21.74.55,1.4,1.21,2.09,1.82-3.44-4.71-7.39-8.88-11.17-13.2-7.96-9.06-16.43-17.74-23.62-27.38-15.07-20.2-24.88-43.2-33.51-66.71-.88-2.39-1.95-2.96-4.34-1.66ZM418.52,381.95c.03,9.32,7.45,16.49,16.95,16.38,9.39-.11,15.99-6.77,16.02-16.16.03-9.57-6.92-16.84-16.11-16.86-9.28-.02-16.88,7.49-16.85,16.64ZM428.34,319.2c1.18,1.9,2.03,3.28,3.29,5.3.53-2.21.88-3.66,1.28-5.3h-4.57Z"/>
      <path d="M276.01,201.6c4.76-40.29,21.85-74.16,50.72-102.18,28.88-28.03,63.72-43.05,103.61-47.09v-26.39c-2.08,0-4.1.07-6.12-.02-3.1-.14-6.27-.03-9.28-.67-6.77-1.46-10.59-7.04-9.88-13.77.7-6.6,5.48-11.32,12.27-11.37,17.82-.15,35.65-.13,53.48,0,6.72.05,11.46,4.75,12.19,11.45.7,6.41-3.01,12.14-9.41,13.58-3.44.78-7.11.6-10.67.78-1.67.09-3.34.01-5.17.01v26.26c49.21,5.38,89.81,26.67,120.42,66.05,19.04,24.49,30.41,52.1,33.82,83.22h-25.15c-.63-2.91-1.18-5.94-1.95-8.92-15.51-60.16-53.35-98.21-113.99-111.58-44.11-9.73-83.8,2.58-118.42,30.83-27.64,22.55-43.65,52.24-50.3,87.1-.42,2.22-1.11,2.96-3.38,2.91-6.6-.15-13.21-.05-19.81-.06-.92,0-1.84-.08-2.98-.13Z"/>
      <path d="M455.37,107.22c28.68,2.09,52.2,11.93,71.2,31.75,6.56,6.84,12.09,14.47,16.75,22.71,2.98,5.27,3.84,10.64,0,15.93-4.19,5.77-11.09,7.21-16.92,3.1-2.38-1.68-4.53-4.07-6.01-6.59-14.94-25.35-37.36-38.26-66.36-40.6-3.32-.27-6.73-1.09-9.82-2.35-4.79-1.96-6.74-6-6.59-11.14.15-5.05,2.36-8.88,7.13-10.49,3.87-1.31,8.03-1.78,10.62-2.32Z"/>
    </g>
  </g>
</svg>