<svg id="Layer_5" enable-background="new 0 0 64 64" height="512" viewBox="0 0 64 64" width="512" xmlns="http://www.w3.org/2000/svg"><g><path d="m58.801 17.081c1.35-1.277 2.199-3.08 2.199-5.081v-1h-16v1c0 1.958.81 3.728 2.11 5h-4.11v-1c0-4.264-2.444-7.961-6-9.786v-.214c0-2.757-2.243-5-5-5s-5 2.243-5 5v.214c-3.556 1.825-6 5.521-6 9.786v1h-3.11c1.3-1.272 2.11-3.042 2.11-5v-1h-16v1c0 1.958.81 3.728 2.11 5h-.11c-2.757 0-5 2.243-5 5v20c0 3.86 3.14 7 7 7 2.548 0 4.775-1.373 6-3.413 1.225 2.04 3.452 3.413 6 3.413s4.775-1.373 6-3.413c.51.849 1.191 1.583 2 2.149v9.264h-9c-2.757 0-5 2.243-5 5v1h36v-1c0-2.757-2.243-5-5-5h-9v-9.264c.809-.566 1.49-1.3 2-2.149 1.225 2.04 3.452 3.413 6 3.413s4.775-1.373 6-3.413c1.225 2.04 3.452 3.413 6 3.413 3.86 0 7-3.14 7-7v-20c0-2.483-1.824-4.533-4.199-4.919zm-11.7-4.081h11.799c-.464 2.279-2.485 4-4.899 4h-2c-2.416 0-4.436-1.721-4.9-4zm6.899 6h4c1.654 0 3 1.346 3 3v5h-4.107c-6.098 0-11.836-2.348-16.192-6.603-.179-.51-.419-.979-.675-1.397h11.974zm-19.165 3.94c.098-.298.165-.61.165-.94 0-.581-.173-1.119-.46-1.579.823-.794 1.891-1.305 3.036-1.403.56.658 1.424 1.902 1.424 2.982s-.863 2.324-1.424 2.981c-.506-.043-1-.18-1.469-.373-.34-.612-.762-1.179-1.272-1.668zm-2.835 6.06c-1.08 0-2.324-.864-2.982-1.424.044-.506.181-1 .373-1.469.613-.34 1.18-.762 1.669-1.273.298.099.61.166.94.166.581 0 1.119-.173 1.579-.46.794.823 1.305 1.891 1.403 3.036-.658.56-1.902 1.424-2.982 1.424zm-8.816-5.801c.181.668.475 1.288.8 1.817-4.522 3.852-10.228 5.984-16.19 5.984h-4.794v-2h4.107c5.939 0 11.566-2.047 16.077-5.801zm1.816-1.199c0-1.08.864-2.324 1.424-2.982.506.044 1 .181 1.469.373.34.613.762 1.18 1.273 1.669-.099.298-.166.61-.166.94 0 .581.173 1.119.46 1.579-.823.794-1.891 1.305-3.036 1.403-.56-.658-1.424-1.902-1.424-2.982zm6 0c0-.551.449-1 1-1s1 .449 1 1-.449 1-1 1-1-.449-1-1zm3.609-4.107c-.613.34-1.18.762-1.669 1.272-.298-.098-.61-.165-.94-.165-.581 0-1.119.173-1.579.46-.794-.823-1.305-1.891-1.403-3.036.658-.56 1.902-1.424 2.982-1.424s2.324.864 2.982 1.424c-.044.506-.181 1-.373 1.469zm6.207 5.306c4.511 3.754 10.138 5.801 16.077 5.801h4.107v2h-4.794c-5.962 0-11.668-2.132-16.19-5.983.325-.53.619-1.15.8-1.818zm-8.816-20.199c1.453 0 2.666 1.038 2.94 2.411-.937-.261-1.92-.411-2.94-.411s-2.003.15-2.94.411c.274-1.373 1.487-2.411 2.94-2.411zm-9 13c0-4.962 4.038-9 9-9s9 4.038 9 9v1h-2.586-.414-1.082c.049-.332.082-.666.082-1v-.414l-.293-.293c-.234-.235-2.36-2.293-4.707-2.293s-4.473 2.058-4.707 2.293l-.293.293v.414c0 .337.033.67.081 1h-1.081-.414-2.586zm-16.899-3h11.799c-.464 2.279-2.485 4-4.899 4h-2c-2.416 0-4.436-1.721-4.9-4zm-.101 6h5 2 10.975c-.256.418-.496.888-.675 1.398-4.357 4.254-10.095 6.602-16.193 6.602h-4.107v-5c0-1.654 1.346-3 3-3zm41.829 42h-31.658c.413-1.164 1.525-2 2.829-2h26c1.304 0 2.416.836 2.829 2zm-13.829-4h-4v-8.295c.634.19 1.305.295 2 .295s1.366-.105 2-.295zm22-10c-2.757 0-5-2.243-5-5v-2h-2v2c0 2.757-2.243 5-5 5s-5-2.243-5-5v-2h-2v2c0 2.757-2.243 5-5 5s-5-2.243-5-5v-2h-2v2c0 2.757-2.243 5-5 5s-5-2.243-5-5v-2h-2v2c0 2.757-2.243 5-5 5s-5-2.243-5-5v-9h4.794c6.404 0 12.548-2.259 17.42-6.376.026.027.065.069.079.083l.293.293h.414c.371 0 .736-.04 1.098-.099-.058.365-.098.731-.098 1.099v.414l.293.293c.146.147 1.031 1.004 2.245 1.628-.782 1.725-1.538 4.057-1.538 6.665h2c0-2.371.731-4.512 1.455-6.056.181.024.361.056.545.056.379 0 .748-.067 1.109-.158.591 2.271.891 5.009.891 8.158h2c0-3.452-.351-6.455-1.038-8.953.948-.574 1.62-1.215 1.745-1.34l.293-.293v-.414c0-.371-.041-.736-.099-1.098.364.058.731.098 1.099.098h.414l.293-.293c.014-.014.053-.056.079-.083 4.872 4.117 11.016 6.376 17.42 6.376h4.794v9c0 2.757-2.243 5-5 5z"/><circle cx="8" cy="44" r="1"/><circle cx="20" cy="44" r="1"/><circle cx="32" cy="44" r="1"/><circle cx="44" cy="44" r="1"/><circle cx="56" cy="44" r="1"/><path d="m61 4c0 .551-.449 1-1 1h-3c-1.654 0-3 1.346-3 3v1h2v-1c0-.551.449-1 1-1h3c1.654 0 3-1.346 3-3s-1.346-3-3-3h-8v2h8c.551 0 1 .449 1 1z"/><path d="m45 7h4c.551 0 1 .449 1 1v1h2v-1c0-1.654-1.346-3-3-3h-4c-.551 0-1-.449-1-1s.449-1 1-1h5v-2h-5c-1.654 0-3 1.346-3 3s1.346 3 3 3z"/><path d="m20 4c0 .551-.449 1-1 1h-3c-1.654 0-3 1.346-3 3v1h2v-1c0-.551.449-1 1-1h3c1.654 0 3-1.346 3-3s-1.346-3-3-3h-8v2h8c.551 0 1 .449 1 1z"/><path d="m4 7h4c.551 0 1 .449 1 1v1h2v-1c0-1.654-1.346-3-3-3h-4c-.551 0-1-.449-1-1s.449-1 1-1h5v-2h-5c-1.654 0-3 1.346-3 3s1.346 3 3 3z"/></g></svg>