<?xml version="1.0" encoding="UTF-8"?>
<svg id="Layer_1" xmlns="http://www.w3.org/2000/svg" viewBox="0 0 841.77 710.24">
  <defs>
    <style>
      .cls-1 {
        fill: #cce9f2;
      }

      .cls-2 {
        fill: #fff;
      }

      .cls-3 {
        fill: #e4f3f7;
      }

      .cls-4 {
        fill: #5a3483;
      }

      .cls-5 {
        fill: #e95428;
      }
    </style>
  </defs>
  <path class="cls-3" d="M587.9,230.36c0-91.6-74.26-165.86-165.86-165.86s-165.86,74.26-165.86,165.86h331.72Z"/>
  <path class="cls-1" d="M309.17,203.96c12.72-72.36,63.41-126.45,124.05-126.45h-49.81c-60.64,0-111.32,54.09-124.05,126.45h49.81Z"/>
  <rect class="cls-5" x="678.59" y="380.86" width="90.1" height="315.45"/>
  <rect class="cls-5" x="73.85" y="380.86" width="90.1" height="315.45"/>
  <g id="bgBC33">
    <g>
      <path d="M61.64,296.02c-.49-4.78-.89-9.11-1.39-13.43-2.14-18.54-4.36-37.07-6.43-55.61-.67-5.99-2.73-10.84-8.68-13.35-.89-.37-1.64-1.3-2.2-2.14-.62-.94-1.04-2.04-1.39-3.12-3.59-10.95,1.12-17.63,12.64-17.73,14-.12,28-.14,42-.01,2.7.03,3.54-.74,3.77-3.39.95-10.91,2.22-21.78,3.2-32.69.64-7.07,3.98-11.99,10.68-14.45,12.5-4.6,25.01-9.2,37.56-13.65,2.2-.78,4.63-1.18,6.97-1.23,5.69-.13,9.93,3.03,11.89,8.49,1.88,5.24.62,10.4-3.83,13.84-2.14,1.66-4.67,2.95-7.21,3.95-7.61,3-15.3,5.82-22.99,8.63-4.82,1.76-7.8,4.72-8.13,10.17-.41,6.62-1.18,13.21-1.82,20.08,1.36.08,2.28.19,3.2.19,13.24-.06,26.47-.21,39.71-.11,1.93.01,4.16.77,5.7,1.93,2.63,1.98,5.17,4.28,7.13,6.91,4.3,5.79,2.42,12.94-4.31,15.48-5.07,1.91-6.9,5.29-7.47,10.29-2.51,22.23-5.18,44.44-7.79,66.66-.12,1.01-.16,2.02-.25,3.26h58.05c-.83-3.99-1.78-7.75-2.39-11.57-4.5-27.92,15.84-52.58,44.19-53.12,21.23-.4,42.48-.21,63.72-.21,82.39,0,164.77.04,247.16.03,7.49,0,14.83.78,21.93,3.24,18.92,6.56,30.32,23.56,29.24,43.97-.25,4.72-1.34,9.4-2.04,14.1-.17,1.1-.34,2.21-.57,3.64,1.38.07,2.48.18,3.59.18,26.95,0,53.91-.03,80.86.07,2.8.01,3.85-.58,3.71-3.61-.27-5.61-.2-11.24-.02-16.85.08-2.31-.8-3.33-2.81-4.23-14.98-6.71-28.48-15.59-38.56-28.73-17.27-22.5-21.2-47.49-12.67-74.47,1.72-5.44,3.78-10.78,5.69-16.17,2.46-6.92,6.43-9.87,13.92-9.96,9.05-.11,18.1,0,27.14,0,22.67,0,45.34.09,68-.1,7.31-.06,12.39,2.97,15.75,9.26,12.87,24.14,12.69,48.83,2.31,73.55-9.06,21.58-24.29,37.3-46.51,45.74-4.56,1.73-5.59,3.57-5.51,8.5.08,4.57.1,9.14.1,13.71,0,3.94-.04,3.94,3.79,3.95,16.86.04,33.72-.1,50.57.24,6.14.12,12.43.72,18.34,2.28,21.24,5.61,35.02,26.77,32.24,48.71-2.91,22.94-21.52,40.44-43.78,40.57-36.95.21-73.91.08-110.86.09-54.86,0-109.72,0-164.58.02-.74,0-1.48.09-2.67.17.5,1.06.84,1.88,1.25,2.65,9.11,17.2,4.38,37.37-11.52,48.68-1.59,1.13-1.8,1.99-.96,3.68,30.08,60.14,78.09,96.32,144.4,107.89,7.48,1.3,15.15,1.49,22.73,2.19.46.04.93-.05,1.84-.11,0-1.37,0-2.66,0-3.95.02-42.48.04-84.96.06-127.44q0-6.82,6.88-6.82c5.05,0,10.1,0,15.14,0q4.05,0,4.06,3.95c0,36.29,0,72.58,0,108.87,0,50.67,0,101.34,0,152.01q0,3.77,3.65,3.77c10.76,0,21.53,0,32.29,0h3.42v-268.55c1.36,0,2.38,0,3.4,0,6.38,0,12.77.12,19.14-.06,2.69-.08,4.1.42,3.86,3.49-.18,2.26.2,4.56.2,6.85.02,88.29.04,176.59,0,264.88,0,3.69-.35,7.42-1,11.05-.8,4.45-3.78,7.26-8.14,8.23-2.76.62-5.65.94-8.48.95-19.52.07-39.05.02-58.57,0-1.52,0-3.05-.09-4.55-.33-6.79-1.08-10.64-4.93-11.04-11.81-.4-6.93-.28-13.9-.3-20.85-.04-14.48-.01-28.96-.01-43.43v-3.7c-20.24-.33-39.9-2.86-59.28-7.58-19.3-4.71-37.84-11.51-55.87-20.46-.33.85-.65,1.5-.84,2.19-5.72,20.62-17.82,37.04-33.65,50.97-1.62,1.43-3.57,2.57-5.52,3.52-6.53,3.17-13.03,2.31-18.14-2.87-3.39-3.44-6.36-7.34-9.19-11.27-7.09-9.86-15.56-18.24-25.83-24.75-1.04-.66-2.13-1.26-3.21-1.86-5.22-2.9-10.18-2.69-15.34.54-5.14,3.22-10.4,6.5-16.02,8.66-14.94,5.74-30.36,7.89-46.2,3.95-6.57-1.63-12.51-4.56-17.68-8.95-3.7-3.14-7.34-6.36-10.96-9.59-2.37-2.11-2.89-2.1-5.06.38-1.57,1.79-3.12,3.6-4.73,5.35-9.04,9.84-26.91,12.98-38.35,3.12-2.01-1.73-4.38-3.03-6.49-4.66-1.92-1.48-3.43-1.2-5.26.31-9.43,7.75-20.12,8.94-31.49,5.49-6.38-1.94-11.56-5.82-15.45-11.22-1.41-1.96-2.62-2.06-4.73-1.19-25.99,10.73-53.02,17.17-81.07,19.16-2.45.17-2.4,1.46-2.4,3.18.02,19.43.05,38.86-.03,58.29-.01,3.31-.25,6.67-.83,9.93-.85,4.8-3.96,7.76-8.7,8.72-2.59.52-5.28.8-7.93.81-19.52.05-39.05.01-58.57,0-.57,0-1.14,0-1.71-.03-9.4-.41-14.15-5.18-14.23-14.61-.11-11.71-.05-23.43-.05-35.15,0-79.53,0-159.06.01-238.59,0-2.17.21-4.35.34-6.67h25.75v268.21c1.43,0,2.46,0,3.48,0,10.86,0,21.72-.09,32.57.06,2.81.04,3.44-.84,3.44-3.54-.07-86.77-.06-173.54-.05-260.31,0-5.75-.76-4.97,4.99-5.01,6.1-.04,12.2.13,18.28-.07,2.71-.09,3.32.82,3.32,3.39-.07,43.34-.05,86.67-.05,130.01,0,1.31,0,2.62,0,4.4,28.78-2.89,55.22-11.45,79.67-26.09,31.15-18.64,55.03-44.15,72.27-76.5-13.24-4.47-23.41-11.93-26.53-26.07-3.04-13.8,2.44-25.1,11.97-35.55-1.77-.08-2.94-.17-4.12-.17-49.62,0-99.24,0-148.85-.01-34.48-.01-68.96.18-103.43-.19-35.26-.38-56.73-37.87-39.33-68.52,8.17-14.39,20.98-22.01,37.46-23.12,5.86-.39,11.76-.06,18.02-.06ZM471.04,361.02c.1.22.19.44.29.65.73,0,1.46,0,2.19,0,105.04,0,210.09.02,315.13-.08,4.42,0,8.97-.63,13.22-1.83,8.88-2.51,13.4-8.95,13.4-17.96,0-8.95-4.61-15.46-13.5-17.87-4.53-1.22-9.38-1.79-14.09-1.79-98.19-.1-196.37-.07-294.56-.07-1.01,0-2.03,0-3.36,0,.92,16.62-5.78,29.3-18.73,38.95ZM421.22,256.36c-48.76,0-97.51,0-146.27.01-4.57,0-9.16-.06-13.69.38-9.99.98-16.99,8.3-17.75,18.14-.72,9.35,5.29,17.54,14.88,20,2.47.63,5.07.97,7.62.98,22.38.07,44.76.06,67.14,0,1.12,0,2.52-.42,3.32-1.15,13.44-12.44,33.98-12.79,48.77-.25.98.83,2.53,1.38,3.82,1.39,11.52.11,23.04.1,34.57.01,1.22,0,2.67-.43,3.62-1.17,5.86-4.51,12.47-7.22,19.66-8.72,11.72-2.46,22.38-.74,31.22,7.93,1.5,1.47,2.97,2,5.02,2,29.23-.06,58.47-.03,87.71-.06,3.14,0,6.29-.1,9.41-.4,10.79-1.03,18.09-9.03,17.99-19.58-.1-10.37-7.47-18.28-18.2-19.06-6.16-.45-12.37-.42-18.55-.43-46.76-.03-93.51-.02-140.27-.02ZM322.98,322.07c-1.7,0-3,0-4.31,0-87.41.02-174.82.03-262.23.07-4.09,0-8.2,0-12.27.34-9.19.77-16.7,8.23-17.53,17.15-.93,9.93,4.8,18.65,14.26,20.95,3.65.89,7.54,1.05,11.32,1.05,95.12.05,190.24.04,285.37.04h3.68c-12.6-10.72-19.84-23.09-18.29-39.61ZM79.35,217.54c0,.79-.05,1.26,0,1.72,2.94,24.46,5.92,48.92,8.8,73.39.24,2.08.77,2.92,3.07,2.9,13.89-.11,27.79-.05,41.68-.06.73,0,1.47-.12,2.4-.2,3.11-25.93,6.21-51.74,9.33-77.76h-65.29ZM383.42,426.27c-.48.25-.67.3-.81.42-2.81,2.57-5.71,5.05-8.39,7.75-1.29,1.3-2.62,2.83-3.22,4.51-8.82,24.99-21.11,48.11-37.63,68.84-37.86,47.53-86.64,76.98-146.5,87.82-7.28,1.32-14.68,2.05-22.11,3.07v14.24c1.3-.06,2.34-.04,3.36-.17,8.67-1.17,17.45-1.85,25.99-3.66,81.03-17.17,140.36-62.86,178.44-136.32,3.31-6.38,6.25-12.82,6.03-20.23-.02-.66.15-1.32.27-1.98,1.5-8.02,3.01-16.04,4.55-24.29ZM450.15,435.68c1.77,7.01,3.8,13.83,5.15,20.79,1.04,5.38,1.18,10.93,1.82,16.4.22,1.83.38,3.82,1.2,5.4,13.6,25.98,31.1,49.01,52.8,68.75,46.05,41.89,100.23,64.05,162.44,66.54,1.12.04,2.24,0,3.48,0v-14.39c-.98-.06-1.74-.07-2.49-.15-12.2-1.31-24.54-1.84-36.57-4.06-81.36-15.03-149.53-72.22-178.37-149.53-1.89-5.08-5.35-7.4-9.46-9.73ZM413.08,412.64c-2.95,0-5.91.18-8.85-.06-2.4-.19-3.6.78-4.54,2.86-7.3,16.21-11.08,33.19-10.72,50.95.24,11.79,5.82,21.03,15.18,28.11,15.27,11.55,37.53,3.87,41.33-16.2,2.05-10.81,1.21-21.42-3.3-31.31-5.17-11.31-11.29-22.19-17.1-33.2-.32-.62-1.5-1.07-2.3-1.1-3.23-.12-6.47-.05-9.7-.05ZM356.39,382.13c-.02.12-.03.23-.05.35-3.9.18-7.81.27-11.7.56-10.94.81-21.5,2.84-30.79,9.25-5.32,3.67-9.43,8.29-11.92,14.26-4.96,11.87-.86,23.89,10.38,30.14,7.39,4.11,15.41,5.73,23.73,4.41,22.81-3.61,39.29-16.33,50.81-36.01,1.34-2.3,1.71-4.38.64-6.97-1.52-3.69-2.5-7.59-3.95-11.31-.35-.9-1.55-1.96-2.47-2.07-8.21-.98-16.45-1.76-24.68-2.6ZM434.54,405.15c9.36,8.36,19.03,17.83,29.58,26.21,12.89,10.24,34.49,7.01,44.87-5.9.95-1.18,1.82-2.47,2.47-3.83,4.71-9.89,4.93-26.99-9.55-36.43-6.46-4.21-13.63-6.23-21.17-7.17-13-1.61-25.61.88-38.14,3.87-.82.2-1.7,1.42-2,2.34-.97,2.98-1.65,6.05-2.52,9.07-1.01,3.53-2.1,7.03-3.54,11.83ZM333.69,326.38c.19,12.54,6.2,21.35,15.81,28.26,10.99,7.91,23.61,11.75,36.5,14.92.77.19,1.9-.16,2.59-.66,4.25-3.06,8.45-6.19,12.58-9.41.61-.48,1.21-1.59,1.1-2.29-2.08-13-4.54-25.92-10.74-37.73-4.03-7.68-9.16-14.52-16.65-19.2-11.22-7.01-24.94-5.33-33.33,4.03-5.71,6.37-7.63,14.11-7.86,22.07ZM479.56,323.59c-.32-2.54-.46-5.12-1-7.61-2.65-12.2-12.56-20.6-24.06-20.52-14.74.11-29.22,11.05-32.37,25.51-2.4,11.03-3.62,22.32-5.23,33.52-.12.83.64,2.17,1.39,2.69,5.47,3.8,11,7.51,16.62,11.09.79.5,2.4.5,3.21.02,9.1-5.36,18.19-10.73,27.11-16.38,2.76-1.75,5.29-4.09,7.36-6.63,5.09-6.26,6.56-13.79,6.96-21.68ZM518.85,640.72c.32-.11.55-.12.67-.24,10.78-10.22,19.44-21.89,24.61-35.96.72-1.95-.1-2.65-1.67-3.46-42.9-21.99-78.33-52.38-104.71-92.98-.41-.64-1.55-.81-2.35-1.19-.14.81-.61,1.74-.36,2.41,7.67,21.38,16.87,42.04,29.45,61.06,7.87,11.9,17.62,22.21,27.53,32.38,10.57,10.86,19.66,22.76,25.96,36.64.22.49.59.92.86,1.35ZM478.07,447.61c9.87,23.45,23.45,44.52,40.66,63.23,28.13,30.58,62.18,51.75,102.08,63.34,18.31,5.32,37.04,8.14,56.23,8.41v-12.94c-4.29-.27-8.37-.46-12.44-.81-4.08-.35-8.17-.69-12.21-1.32-58.04-8.93-104.4-37.22-139.34-84.31-7.97-10.74-14.55-22.31-20.25-34.41-.39-.83-1.48-1.92-2.23-1.91-4.07.06-8.13.43-12.52.71ZM164.55,581.89c26.77-2.2,51.89-8.91,75.79-20.18,24.02-11.32,45.32-26.5,63.88-45.49,18.41-18.84,33.09-40.22,43.93-64.49-4.24.49-7.91,1.22-11.58,1.23-2.72.01-3.94,1.05-5.15,3.34-28.31,53.36-71.33,88.88-129.44,105.58-11.27,3.24-23.13,4.46-34.7,6.68-.96.18-2.58.87-2.61,1.39-.22,3.86-.12,7.74-.12,11.95ZM724.75,167.46s0,.09,0,.13c-6.19,0-12.38-.06-18.57.02-6.28.07-12.57.08-18.84.47-5.2.32-7.51,2.48-8.6,7.59-.61,2.87-.95,5.83-1.15,8.76-.44,6.46-.37,6.47,5.83,7.98,11.45,2.8,22.84,3.82,34.34-.07,4.7-1.59,9.52-.64,14.34.57,4.57,1.15,9.39,2.3,14,1.98,7.36-.51,14.65-2.19,21.94-3.56.58-.11,1.35-1.67,1.27-2.48-.38-3.98-1.04-7.93-1.54-11.89-.94-7.52-3.16-9.5-10.74-9.5-10.76,0-21.52,0-32.28,0ZM447.04,601.23c-.22-.35-.49-.84-.82-1.28-6.79-9.06-11.85-19.07-16.04-29.53-7.4-18.46-12.02-37.68-15.46-57.21-.63-3.58-.98-3.86-5.42-3.66-1.17,35.5-2.9,71.02-1.5,106.8,15.02-.73,27.57-6.58,39.25-15.13ZM273.78,607.02c.86.29,1.2.46,1.55.51,5.52.86,10.51,0,14.89-3.89,5.81-5.17,12.35-6.32,19.61-3.03.9.41,2.59-.02,3.48-.65,11.24-7.99,21.15-17.43,30.03-27.95,19.55-23.14,33.09-49.63,43.23-78,.77-2.15-.19-3.32-1.65-4.56-27.43,48.23-65.99,85.67-111.14,117.57ZM319,606.19c6.63,7.43,15.53,4.99,19.95-.39,1.57-1.91,3.19-3.79,4.87-5.6,2.64-2.85,5.76-5.58,9.67-5.52,4.34.07,6.26-2.25,8.03-5.41.56-.99,1.24-1.91,1.86-2.88,15.9-24.92,25.86-52.24,32.57-80.86.86-3.67.85-3.67-2.6-5.47-15.77,41.63-38,78.76-74.35,106.12ZM398.9,616.21c.4-30.64.79-60.98,1.18-90.64-4.56,11.75-8.76,24.31-14.26,36.29-5.53,12.06-12.34,23.54-18.7,35.48,9.27,7.76,17.4,18.68,31.77,18.87ZM688.39,223.13c3.14,11.88,22.58,24.17,36.81,23.25,13.55-.88,31.65-13.86,32.91-23.4-23.18-4.81-46.38-5.18-69.71.15ZM422.89,510.54c.08.71.12,1.28.22,1.83,3.2,18.5,7.51,36.71,14.41,54.22,4.34,11.02,9.6,21.56,17.17,30.78.69.84,1.93,1.71,2.95,1.74,6.17.21,11.96,1.88,16.99,5.23,6.71,4.47,13.02,9.53,19.49,14.35.75.56,1.41,1.22,2.11,1.84-3.48-4.75-7.46-8.97-11.28-13.32-8.03-9.14-16.58-17.91-23.84-27.64-15.21-20.39-25.12-43.61-33.83-67.35-.88-2.41-1.97-2.99-4.38-1.68ZM395.14,385.59c.03,9.41,7.52,16.65,17.11,16.54,9.48-.11,16.14-6.83,16.17-16.32.03-9.66-6.98-17-16.26-17.02-9.36-.02-17.04,7.56-17.01,16.8ZM405.06,322.24c1.19,1.92,2.05,3.31,3.32,5.36.54-2.23.89-3.7,1.29-5.36h-4.61Z"/>
      <path d="M251.27,203.52c4.81-40.68,22.06-74.87,51.2-103.16,29.15-28.3,64.32-43.46,104.6-47.54v-26.64c-2.1,0-4.14.07-6.18-.02-3.13-.14-6.33-.03-9.36-.68-6.83-1.47-10.69-7.11-9.97-13.9.71-6.66,5.54-11.42,12.39-11.48,17.99-.15,35.99-.13,53.99,0,6.79.05,11.57,4.79,12.3,11.56.71,6.47-3.04,12.25-9.5,13.71-3.47.79-7.17.6-10.77.79-1.68.09-3.38.01-5.22.01v26.51c49.68,5.44,90.67,26.93,121.57,66.68,19.22,24.73,30.7,52.59,34.14,84.01h-25.39c-.64-2.93-1.19-6-1.97-9-15.66-60.73-53.86-99.14-115.07-112.65-44.53-9.82-84.6,2.61-119.55,31.12-27.9,22.76-44.07,52.74-50.78,87.93-.43,2.24-1.12,2.99-3.41,2.93-6.66-.15-13.33-.05-20-.06-.93,0-1.86-.08-3.01-.13Z"/>
      <path d="M432.35,108.25c28.96,2.11,52.69,12.05,71.88,32.05,6.63,6.91,12.21,14.6,16.91,22.92,3.01,5.32,3.87,10.74,0,16.08-4.23,5.83-11.2,7.28-17.08,3.13-2.4-1.7-4.57-4.11-6.07-6.65-15.08-25.59-37.71-38.62-66.99-40.99-3.36-.27-6.8-1.1-9.91-2.38-4.84-1.98-6.8-6.05-6.65-11.24.15-5.1,2.38-8.96,7.2-10.59,3.91-1.32,8.1-1.8,10.72-2.35Z"/>
      <path class="cls-4" d="M471.04,361.02c12.95-9.65,19.64-22.33,18.73-38.95,1.33,0,2.34,0,3.36,0,98.19,0,196.37-.02,294.56.07,4.71,0,9.55.57,14.09,1.79,8.89,2.4,13.5,8.91,13.5,17.87,0,9.01-4.52,15.45-13.4,17.96-4.25,1.2-8.81,1.83-13.22,1.83-105.04.1-210.09.08-315.13.08-.73,0-1.46,0-2.19,0-.1-.22-.19-.44-.29-.65Z"/>
      <path class="cls-5" d="M421.22,256.36c46.76,0,93.51-.01,140.27.02,6.19,0,12.39-.02,18.55.43,10.72.77,18.1,8.68,18.2,19.06.1,10.55-7.2,18.55-17.99,19.58-3.12.3-6.27.4-9.41.4-29.24.03-58.47,0-87.71.06-2.05,0-3.52-.53-5.02-2-8.84-8.66-19.5-10.39-31.22-7.93-7.18,1.51-13.79,4.21-19.66,8.72-.95.73-2.4,1.16-3.62,1.17-11.52.09-23.05.1-34.57-.01-1.29-.01-2.84-.56-3.82-1.39-14.79-12.55-35.34-12.19-48.77.25-.8.74-2.2,1.15-3.32,1.15-22.38.07-44.76.08-67.14,0-2.54,0-5.15-.35-7.62-.98-9.59-2.45-15.6-10.64-14.88-20,.76-9.84,7.76-17.16,17.75-18.14,4.53-.44,9.13-.38,13.69-.38,48.76-.02,97.51-.01,146.27-.01Z"/>
      <path class="cls-4" d="M322.98,322.07c-1.55,16.51,5.7,28.88,18.29,39.61h-3.68c-95.12,0-190.24.01-285.37-.04-3.78,0-7.68-.16-11.32-1.05-9.45-2.3-15.19-11.02-14.26-20.95.83-8.92,8.34-16.38,17.53-17.15,4.07-.34,8.18-.34,12.27-.34,87.41-.03,174.82-.05,262.23-.07,1.31,0,2.61,0,4.31,0Z"/>
      <path class="cls-5" d="M79.35,217.54h65.29c-3.12,26.02-6.22,51.82-9.33,77.76-.94.08-1.67.2-2.4.2-13.89.01-27.79-.05-41.68.06-2.3.02-2.83-.82-3.07-2.9-2.88-24.47-5.85-48.93-8.8-73.39-.06-.46,0-.93,0-1.72Z"/>
      <path class="cls-4" d="M383.42,426.27c-1.55,8.25-3.05,16.27-4.55,24.29-.12.65-.29,1.32-.27,1.98.22,7.41-2.72,13.86-6.03,20.23-38.08,73.46-97.41,119.16-178.44,136.32-8.54,1.81-17.32,2.48-25.99,3.66-1.02.14-2.06.11-3.36.17v-14.24c7.43-1.02,14.82-1.75,22.11-3.07,59.86-10.85,108.65-40.29,146.5-87.82,16.52-20.74,28.81-43.85,37.63-68.84.59-1.68,1.92-3.22,3.22-4.51,2.69-2.69,5.58-5.18,8.39-7.75.13-.12.32-.17.81-.42Z"/>
      <path class="cls-4" d="M450.15,435.68c4.11,2.33,7.57,4.66,9.46,9.73,28.85,77.31,97.02,134.5,178.37,149.53,12.03,2.22,24.37,2.75,36.57,4.06.75.08,1.51.09,2.49.15v14.39c-1.24,0-2.36.04-3.48,0-62.21-2.49-116.39-24.65-162.44-66.54-21.7-19.74-39.2-42.77-52.8-68.75-.83-1.58-.99-3.57-1.2-5.4-.64-5.46-.78-11.02-1.82-16.4-1.35-6.95-3.38-13.78-5.15-20.79Z"/>
      <path class="cls-4" d="M413.08,412.64c3.24,0,6.47-.07,9.7.05.8.03,1.97.48,2.3,1.1,5.8,11.01,11.93,21.89,17.1,33.2,4.52,9.89,5.35,20.5,3.3,31.31-3.8,20.06-26.06,27.75-41.33,16.2-9.36-7.08-14.94-16.31-15.18-28.11-.36-17.76,3.42-34.74,10.72-50.95.94-2.08,2.14-3.05,4.54-2.86,2.93.24,5.9.06,8.85.06Z"/>
      <path class="cls-5" d="M356.39,382.13c8.23.84,16.47,1.62,24.68,2.6.91.11,2.12,1.17,2.47,2.07,1.45,3.72,2.43,7.63,3.95,11.31,1.07,2.58.7,4.67-.64,6.97-11.51,19.68-27.99,32.39-50.81,36.01-8.32,1.32-16.34-.31-23.73-4.41-11.24-6.25-15.34-18.28-10.38-30.14,2.5-5.97,6.6-10.59,11.92-14.26,9.29-6.41,19.86-8.44,30.79-9.25,3.89-.29,7.8-.38,11.7-.56.02-.12.03-.23.05-.35Z"/>
      <path class="cls-5" d="M434.54,405.15c1.44-4.8,2.53-8.3,3.54-11.83.86-3.02,1.54-6.09,2.52-9.07.3-.92,1.18-2.14,2-2.34,12.53-2.99,25.14-5.48,38.14-3.87,7.54.93,14.71,2.96,21.17,7.17,14.48,9.44,14.26,26.55,9.55,36.43-.65,1.36-1.52,2.65-2.47,3.83-10.37,12.91-31.98,16.14-44.87,5.9-10.55-8.38-20.22-17.85-29.58-26.21Z"/>
      <path class="cls-4" d="M333.69,326.38c.23-7.97,2.15-15.7,7.86-22.07,8.39-9.36,22.11-11.04,33.33-4.03,7.5,4.68,12.62,11.52,16.65,19.2,6.2,11.81,8.66,24.73,10.74,37.73.11.7-.49,1.81-1.1,2.29-4.13,3.22-8.33,6.35-12.58,9.41-.68.49-1.81.85-2.59.66-12.89-3.17-25.51-7.01-36.5-14.92-9.61-6.91-15.63-15.73-15.81-28.26Z"/>
      <path class="cls-4" d="M479.56,323.59c-.41,7.89-1.87,15.43-6.96,21.68-2.06,2.54-4.6,4.88-7.36,6.63-8.92,5.65-18.01,11.03-27.11,16.38-.81.48-2.43.48-3.21-.02-5.62-3.57-11.15-7.28-16.62-11.09-.75-.52-1.51-1.86-1.39-2.69,1.61-11.2,2.83-22.49,5.23-33.52,3.15-14.47,17.64-25.4,32.37-25.51,11.49-.08,21.41,8.32,24.06,20.52.54,2.49.68,5.07,1,7.61Z"/>
      <path class="cls-5" d="M518.85,640.72c-.28-.43-.64-.86-.86-1.35-6.3-13.88-15.38-25.79-25.96-36.64-9.91-10.17-19.66-20.47-27.53-32.38-12.58-19.02-21.78-39.67-29.45-61.06-.24-.67.23-1.6.36-2.41.8.39,1.93.56,2.35,1.19,26.38,40.6,61.81,71,104.71,92.98,1.57.81,2.39,1.5,1.67,3.46-5.18,14.07-13.83,25.74-24.61,35.96-.12.12-.35.13-.67.24Z"/>
      <path class="cls-5" d="M478.07,447.61c4.38-.28,8.45-.65,12.52-.71.75-.01,1.83,1.08,2.23,1.91,5.7,12.09,12.29,23.67,20.25,34.41,34.94,47.09,81.3,75.38,139.34,84.31,4.04.62,8.13.97,12.21,1.32,4.07.35,8.15.53,12.44.81v12.94c-19.19-.26-37.92-3.09-56.23-8.41-39.91-11.58-73.95-32.76-102.08-63.34-17.21-18.71-30.79-39.78-40.66-63.23Z"/>
      <path class="cls-5" d="M164.55,581.89c0-4.21-.1-8.09.12-11.95.03-.52,1.65-1.2,2.61-1.39,11.57-2.22,23.43-3.44,34.7-6.68,58.11-16.7,101.13-52.21,129.44-105.58,1.21-2.29,2.44-3.33,5.15-3.34,3.67-.01,7.34-.74,11.58-1.23-10.85,24.27-25.52,45.64-43.93,64.49-18.56,18.99-39.87,34.17-63.88,45.49-23.9,11.27-49.01,17.98-75.79,20.18Z"/>
      <path class="cls-2" d="M724.75,167.46c10.76,0,21.52,0,32.28,0,7.59,0,9.8,1.98,10.74,9.5.5,3.97,1.17,7.92,1.54,11.89.08.81-.69,2.37-1.27,2.48-7.29,1.37-14.57,3.04-21.94,3.56-4.61.32-9.44-.83-14-1.98-4.82-1.21-9.65-2.16-14.34-.57-11.5,3.89-22.89,2.87-34.34.07-6.2-1.52-6.27-1.52-5.83-7.98.2-2.94.54-5.89,1.15-8.76,1.09-5.11,3.4-7.27,8.6-7.59,6.26-.38,12.56-.39,18.84-.47,6.19-.07,12.38-.02,18.57-.02,0-.04,0-.09,0-.13Z"/>
      <path class="cls-5" d="M447.04,601.23c-11.68,8.55-24.24,14.4-39.25,15.13-1.4-35.78.34-71.3,1.5-106.8,4.44-.19,4.79.08,5.42,3.66,3.45,19.53,8.07,38.75,15.46,57.21,4.19,10.46,9.26,20.46,16.04,29.53.33.44.6.93.82,1.28Z"/>
      <path class="cls-5" d="M273.78,607.02c45.15-31.9,83.72-69.34,111.14-117.57,1.46,1.23,2.42,2.41,1.65,4.56-10.14,28.37-23.67,54.86-43.23,78-8.89,10.52-18.8,19.96-30.03,27.95-.9.64-2.58,1.06-3.48.65-7.26-3.29-13.81-2.14-19.61,3.03-4.38,3.9-9.36,4.76-14.89,3.89-.35-.05-.69-.22-1.55-.51Z"/>
      <path class="cls-4" d="M319,606.19c36.36-27.37,58.58-64.5,74.35-106.12,3.44,1.8,3.46,1.8,2.6,5.47-6.71,28.62-16.67,55.94-32.57,80.86-.61.96-1.3,1.88-1.86,2.88-1.77,3.16-3.69,5.48-8.03,5.41-3.91-.06-7.02,2.67-9.67,5.52-1.68,1.81-3.3,3.69-4.87,5.6-4.42,5.38-13.32,7.82-19.95.39Z"/>
      <path class="cls-5" d="M398.9,616.21c-14.36-.19-22.5-11.11-31.77-18.87,6.36-11.94,13.16-23.42,18.7-35.48,5.49-11.97,9.7-24.53,14.26-36.29-.39,29.65-.78,60-1.18,90.64Z"/>
      <path class="cls-5" d="M688.39,223.13c23.33-5.33,46.54-4.96,69.71-.15-1.26,9.54-19.36,22.52-32.91,23.4-14.23.93-33.67-11.37-36.81-23.25Z"/>
      <path class="cls-4" d="M422.89,510.54c2.41-1.3,3.5-.73,4.38,1.68,8.71,23.73,18.62,46.95,33.83,67.35,7.26,9.73,15.81,18.49,23.84,27.64,3.82,4.35,7.8,8.57,11.28,13.32-.7-.61-1.37-1.28-2.11-1.84-6.47-4.82-12.78-9.88-19.49-14.35-5.03-3.35-10.83-5.02-16.99-5.23-1.01-.03-2.25-.9-2.95-1.74-7.57-9.22-12.83-19.75-17.17-30.78-6.9-17.51-11.21-35.72-14.41-54.22-.1-.55-.13-1.12-.22-1.83Z"/>
      <path class="cls-5" d="M395.14,385.59c-.03-9.24,7.65-16.82,17.01-16.8,9.28.02,16.3,7.36,16.26,17.02-.03,9.49-6.69,16.2-16.17,16.32-9.59.11-17.08-7.13-17.11-16.54Z"/>
      <path class="cls-2" d="M405.06,322.24h4.61c-.4,1.66-.75,3.13-1.29,5.36-1.27-2.04-2.13-3.43-3.32-5.36Z"/>
    </g>
  </g>
</svg>