<?xml version="1.0" encoding="UTF-8"?>
<svg id="Layer_1" xmlns="http://www.w3.org/2000/svg" viewBox="0 0 792.03 633.62">
  <defs>
    <style>
      .cls-1 {
        fill: #5a3483;
      }

      .cls-2 {
        fill: #e95428;
      }

      .cls-3 {
        fill: #d45815;
      }
    </style>
  </defs>
  <path class="cls-2" d="M237.61,198.01h158.41v184.81h-158.41v-184.81Z"/>
  <path class="cls-2" d="M316.81,435.62h52.8v145.21h-52.8v-145.21Z"/>
  <path class="cls-2" d="M422.42,435.62h52.8v145.21h-52.8v-145.21Z"/>
  <path class="cls-1" d="M554.42,382.81c25.36,0,49.67,10.07,67.6,28l156.81,156.81v52.8h-158.41v-52.8l-156.8-156.8c-17.93-17.93-42.25-28-67.6-28h158.41Z"/>
  <path class="cls-2" d="M396.02,198.01h158.41v184.81h-158.41v-184.81Z"/>
  <path class="cls-3" d="M501.62,382.81v-105.6c0-14.58-11.82-26.4-26.4-26.4s-26.4,11.82-26.4,26.4v105.6h52.8Z"/>
  <path class="cls-2" d="M316.81,132.01h52.8v66h-52.8v-66Z"/>
  <path class="cls-2" d="M422.42,132.01h52.8v66h-52.8v-66Z"/>
  <path class="cls-1" d="M237.61,132.01h316.81L396.02,13.2l-158.41,118.8Z"/>
  <path class="cls-3" d="M343.21,396.02v-118.8c0-14.58-11.82-26.4-26.4-26.4s-26.4,11.82-26.4,26.4v118.8h52.8Z"/>
  <path class="cls-1" d="M198.01,620.42l175.47-175.47c5.98-5.98,14.08-9.33,22.53-9.33v-52.8h-79.2c-25.36,0-49.67,10.07-67.6,28l-209.61,209.61h158.41Z"/>
  <path class="cls-3" d="M328.41,410.82l-156.8,156.8v52.8h26.4l175.47-175.47c5.98-5.98,14.08-9.33,22.53-9.33s16.56,3.36,22.53,9.33l175.47,175.47h26.4v-52.8l-156.8-156.8c-17.93-17.93-42.25-28-67.6-28h0c-25.36,0-49.67,10.07-67.6,28h0Z"/>
  <path class="cls-1" d="M316.81,382.81c-25.36,0-49.67,10.07-67.6,28l-209.61,209.61H13.2v-52.8l156.81-156.81c17.93-17.93,42.25-28,67.6-28h79.2Z"/>
  <path d="M788.16,558.29l-156.8-156.8c-17.15-17.23-39.6-28.17-63.74-31.05v-172.43c0-7.29-5.91-13.2-13.2-13.2h-66v-39.6h66c7.29,0,13.2-5.91,13.2-13.2,0-4.16-1.96-8.07-5.28-10.56L403.94,2.64c-4.69-3.52-11.15-3.52-15.84,0l-158.41,118.8c-5.83,4.37-7.02,12.65-2.64,18.48,2.49,3.32,6.41,5.28,10.56,5.28h66v39.6h-66c-7.29,0-13.2,5.91-13.2,13.2v172.43c-24.14,2.88-46.59,13.82-63.74,31.05L3.87,558.29c-2.48,2.48-3.87,5.83-3.87,9.33v52.8c0,7.29,5.91,13.2,13.2,13.2h184.81c3.5,0,6.86-1.39,9.33-3.87l96.27-96.27v47.33c0,7.29,5.91,13.2,13.2,13.2h52.8c7.29,0,13.2-5.91,13.2-13.2v-126.54c7.29-7.29,19.11-7.29,26.4,0h0v126.54c0,7.29,5.91,13.2,13.2,13.2h52.8c7.29,0,13.2-5.91,13.2-13.2v-47.33l96.27,96.27c2.48,2.48,5.83,3.87,9.33,3.87h184.81c7.29,0,13.2-5.91,13.2-13.2v-52.8c0-3.5-1.39-6.86-3.87-9.33ZM520.29,448.82h121.07l39.6,39.6h-121.07l-39.6-39.6ZM614.95,422.42h-121.07l-20.93-20.93c-1.91-1.91-3.9-3.72-5.93-5.47h87.39c21.87-.06,42.85,8.63,58.27,24.14l2.26,2.26ZM158.41,567.62v39.6h-86.93l187.07-187.07c15.42-15.51,36.4-24.2,58.27-24.14h8.19c-2.03,1.75-4.02,3.56-5.93,5.47l-156.8,156.8c-2.48,2.48-3.87,5.83-3.87,9.33ZM330.01,369.61h-26.4v-92.4c0-7.29,5.91-13.2,13.2-13.2s13.2,5.91,13.2,13.2v92.4ZM409.22,145.21v39.6h-26.4v-39.6h26.4ZM488.42,369.61h-26.4v-92.4c0-7.29,5.91-13.2,13.2-13.2s13.2,5.91,13.2,13.2v92.4ZM541.22,369.61h-26.4v-92.4c0-21.87-17.73-39.6-39.6-39.6s-39.6,17.73-39.6,39.6v92.4h-26.4v-158.41h132.01v158.41ZM462.02,184.81h-26.4v-39.6h26.4v39.6ZM396.02,29.7l118.8,89.1h-237.61l118.8-89.1ZM330.01,145.21h26.4v39.6h-26.4v-39.6ZM382.81,211.21v158.41h-26.4v-92.4c0-21.87-17.73-39.6-39.6-39.6s-39.6,17.73-39.6,39.6v92.4h-26.4v-158.41h132.01ZM26.4,573.09l152.94-152.94c15.42-15.5,36.4-24.2,58.27-24.14h8.19c-2.03,1.75-4.02,3.56-5.93,5.47l-205.74,205.74h-7.73v-34.13ZM356.41,567.62h-26.4v-60.53l26.4-26.4v86.93ZM462.02,567.62h-26.4v-86.93l26.4,26.4v60.53ZM607.22,607.22h-7.73l-171.6-171.61c-17.6-17.6-46.14-17.6-63.74,0l-171.6,171.61h-7.73v-34.13l152.94-152.94c32.18-32.18,84.35-32.18,116.54,0h0s152.94,152.94,152.94,152.94v34.13ZM586.29,514.82h121.07l39.6,39.6h-121.07l-39.6-39.6ZM633.62,607.22v-26.4h132.01v26.4h-132.01Z"/>
</svg>