<?xml version="1.0" encoding="UTF-8"?>
<svg id="Layer_1" xmlns="http://www.w3.org/2000/svg" viewBox="0 0 792.03 633.62">
  <path d="M801.72,558.29l-156.8-156.8c-17.15-17.23-39.6-28.17-63.74-31.05v-172.43c0-7.29-5.91-13.2-13.2-13.2h-66v-39.6h66c7.29,0,13.2-5.91,13.2-13.2,0-4.16-1.96-8.07-5.28-10.56L417.49,2.64c-4.69-3.52-11.15-3.52-15.84,0l-158.41,118.8c-5.83,4.37-7.02,12.65-2.64,18.48,2.49,3.32,6.41,5.28,10.56,5.28h66v39.6h-66c-7.29,0-13.2,5.91-13.2,13.2v172.43c-24.14,2.88-46.59,13.82-63.74,31.05L17.42,558.29c-2.48,2.48-3.87,5.83-3.87,9.33v52.8c0,7.29,5.91,13.2,13.2,13.2h184.81c3.5,0,6.86-1.39,9.33-3.87l96.27-96.27v47.33c0,7.29,5.91,13.2,13.2,13.2h52.8c7.29,0,13.2-5.91,13.2-13.2v-126.54c7.29-7.29,19.11-7.29,26.4,0h0v126.54c0,7.29,5.91,13.2,13.2,13.2h52.8c7.29,0,13.2-5.91,13.2-13.2v-47.33l96.27,96.27c2.48,2.48,5.83,3.87,9.33,3.87h184.81c7.29,0,13.2-5.91,13.2-13.2v-52.8c0-3.5-1.39-6.86-3.87-9.33ZM533.84,448.82h121.07l39.6,39.6h-121.07l-39.6-39.6ZM628.51,422.42h-121.07l-20.93-20.93c-1.91-1.91-3.9-3.72-5.93-5.47h87.39c21.87-.06,42.85,8.63,58.27,24.14l2.26,2.26ZM171.96,567.62v39.6h-86.93l187.07-187.07c15.42-15.51,36.4-24.2,58.27-24.14h8.19c-2.03,1.75-4.02,3.56-5.93,5.47l-156.8,156.8c-2.48,2.48-3.87,5.83-3.87,9.33ZM343.57,369.61h-26.4v-92.4c0-7.29,5.91-13.2,13.2-13.2s13.2,5.91,13.2,13.2v92.4ZM422.77,145.21v39.6h-26.4v-39.6h26.4ZM501.97,369.61h-26.4v-92.4c0-7.29,5.91-13.2,13.2-13.2s13.2,5.91,13.2,13.2v92.4ZM554.77,369.61h-26.4v-92.4c0-21.87-17.73-39.6-39.6-39.6s-39.6,17.73-39.6,39.6v92.4h-26.4v-158.41h132.01v158.41ZM475.57,184.81h-26.4v-39.6h26.4v39.6ZM409.57,29.7l118.8,89.1h-237.61l118.8-89.1ZM343.57,145.21h26.4v39.6h-26.4v-39.6ZM396.37,211.21v158.41h-26.4v-92.4c0-21.87-17.73-39.6-39.6-39.6s-39.6,17.73-39.6,39.6v92.4h-26.4v-158.41h132.01ZM39.95,573.09l152.94-152.94c15.42-15.5,36.4-24.2,58.27-24.14h8.19c-2.03,1.75-4.02,3.56-5.93,5.47l-205.74,205.74h-7.73v-34.13ZM369.97,567.62h-26.4v-60.53l26.4-26.4v86.93ZM475.57,567.62h-26.4v-86.93l26.4,26.4v60.53ZM620.78,607.22h-7.73l-171.6-171.61c-17.6-17.6-46.14-17.6-63.74,0l-171.6,171.61h-7.73v-34.13l152.94-152.94c32.18-32.18,84.35-32.18,116.54,0h0s152.94,152.94,152.94,152.94v34.13ZM599.84,514.82h121.07l39.6,39.6h-121.07l-39.6-39.6ZM647.18,607.22v-26.4h132.01v26.4h-132.01Z"/>
</svg>