<?xml version="1.0" encoding="utf-8"?>
<!-- Generator: Adobe Illustrator 27.5.0, SVG Export Plug-In . SVG Version: 6.00 Build 0)  -->
<svg version="1.1" xmlns="http://www.w3.org/2000/svg" xmlns:xlink="http://www.w3.org/1999/xlink" x="0px" y="0px"
	 viewBox="0 0 2200 2200" style="enable-background:new 0 0 2200 2200;" xml:space="preserve">
<g id="background">
	<rect y="0" width="24px" height="24px"/>
</g>
<g id="Objects">
	<g>
		<g>
			<path style="fill:#EA4949;" d="M1862.79,1036.919c0,63.233-119.463,109.926-135.05,168.244
				c-16.128,60.342,63.505,160.411,32.939,213.242c-31.007,53.592-157.764,34.442-201.257,77.935
				c-43.493,43.493-24.344,170.251-77.935,201.257c-52.831,30.567-152.9-49.067-213.241-32.939
				c-58.318,15.587-105.012,135.05-168.244,135.05c-63.232,0-109.926-119.463-168.244-135.05
				c-60.342-16.128-160.411,63.505-213.242,32.939c-53.592-31.007-34.442-157.764-77.935-201.257s-170.251-24.344-201.257-77.935
				c-30.567-52.831,49.067-152.9,32.939-213.241c-15.587-58.318-135.05-105.012-135.05-168.244
				c0-63.232,119.463-109.926,135.05-168.244c16.128-60.342-63.505-160.411-32.939-213.242
				c31.007-53.592,157.764-34.442,201.257-77.935c43.493-43.493,24.343-170.251,77.935-201.257
				c52.831-30.567,152.9,49.067,213.241,32.939c58.318-15.587,105.012-135.05,168.244-135.05
				c63.232,0,109.926,119.463,168.244,135.05c60.342,16.128,160.411-63.505,213.242-32.939
				c53.592,31.007,34.442,157.764,77.935,201.257s170.251,24.344,201.257,77.935c30.567,52.831-49.067,152.9-32.939,213.241
				C1743.327,926.993,1862.79,973.687,1862.79,1036.919z"/>
			<path style="fill:#CE4545;" d="M1727.743,1205.162c-16.136,60.344,63.505,160.411,32.938,213.239
				c-31.011,53.597-157.77,34.449-201.265,77.935c-43.486,43.495-24.338,170.254-77.935,201.265
				c-52.828,30.566-152.895-49.074-213.239-32.939c-58.315,15.58-105.007,135.045-168.243,135.045V274.132
				c63.236,0,109.928,119.465,168.243,135.045c60.344,16.136,160.411-63.505,213.239-32.939
				c53.597,31.011,34.449,157.77,77.935,201.265c43.495,43.486,170.254,24.338,201.265,77.935
				c30.566,52.828-49.074,152.895-32.938,213.239c15.579,58.315,135.045,105.007,135.045,168.243
				S1743.323,1146.848,1727.743,1205.162z"/>
			<path style="fill:#FFFFFF;" d="M1002.871,996.877c22.312-27.106,33.472-63.792,33.472-110.066v-0.41
				c0-46.543-11.16-83.3-33.472-110.271c-22.318-26.965-53.184-40.454-92.611-40.454c-39.157,0-70.023,13.489-92.612,40.454
				c-22.587,26.971-33.882,63.728-33.882,110.271v0.41c0,46.274,11.294,82.96,33.882,110.066
				c22.588,27.105,53.454,40.659,92.612,40.659C949.687,1037.536,980.553,1023.983,1002.871,996.877z M866.932,956.424
				c-10.267-16.563-15.401-39.767-15.401-69.613v-0.41c0-30.115,5.134-53.39,15.401-69.818s24.705-24.642,43.328-24.642
				c18.616,0,33.061,8.214,43.328,24.642c10.267,16.428,15.401,39.702,15.401,69.818v0.41c0,29.846-5.134,53.05-15.401,69.613
				c-10.267,16.569-24.712,24.847-43.328,24.847C891.637,981.271,877.2,972.993,866.932,956.424z"/>
			<path style="fill:#FFFFFF;" d="M1382.761,1076.757c-22.318-26.964-53.184-40.453-92.611-40.453
				c-39.157,0-70.023,13.489-92.612,40.453c-22.588,26.971-33.882,63.593-33.882,109.86v0.411c0,46.549,11.294,83.37,33.882,110.476
				c22.588,27.105,53.454,40.658,92.612,40.658c39.426,0,70.292-13.553,92.611-40.658c22.312-27.106,33.472-63.927,33.472-110.476
				v-0.411C1416.233,1140.35,1405.073,1103.728,1382.761,1076.757z M1348.88,1187.438c0,29.846-5.134,53.051-15.401,69.613
				c-10.267,16.569-24.712,24.847-43.328,24.847c-18.623,0-33.061-8.278-43.328-24.847c-10.267-16.562-15.401-39.767-15.401-69.613
				v-0.41c0-30.116,5.134-53.39,15.401-69.818c10.267-16.427,24.705-24.642,43.328-24.642c18.616,0,33.061,8.214,43.328,24.642
				c10.267,16.428,15.401,39.702,15.401,69.818V1187.438z"/>
			<polygon style="fill:#FFFFFF;" points="1260.814,740.606 882.567,1333.234 940.418,1333.234 1317.843,740.606 			"/>
		</g>
		<ellipse style="fill:#E2E2E2;" cx="1100" cy="1900.639" rx="491.32" ry="25.231"/>
	</g>
</g>
</svg>
