<svg version="1.2" xmlns="http://www.w3.org/2000/svg" viewBox="0 0 20 28" width="20" height="28">
	<title>arrow-right-svg</title>
	<style>
		.s0 { fill: #ffffff } 
	</style>
	<g id="Layer">
		<path id="Layer" class="s0" d="m6.6 27.4l12.8-12q0.3-0.3 0.4-0.6 0.2-0.4 0.2-0.8 0-0.4-0.2-0.8-0.1-0.3-0.4-0.6l-12.8-12q-0.3-0.3-0.7-0.4-0.4-0.2-0.8-0.2-0.4 0-0.8 0.2-0.4 0.1-0.7 0.4l-3 2.8q-0.3 0.3-0.5 0.6-0.1 0.4-0.1 0.8 0 0.4 0.1 0.8 0.2 0.3 0.5 0.6l8.3 7.8-8.3 7.8q-0.3 0.3-0.5 0.7-0.1 0.3-0.1 0.7 0 0.4 0.1 0.8 0.2 0.4 0.5 0.6l3 2.8c0.8 0.8 2.1 0.8 3 0z"/>
	</g>
</svg>