<?xml version="1.0" encoding="UTF-8"?>
<svg id="Layer_1" xmlns="http://www.w3.org/2000/svg" viewBox="0 0 811.72 694.19">
  <defs>
    <style>
      .cls-1 {
        fill: #5a3483;
      }

      .cls-2 {
        fill: #e95428;
      }
    </style>
  </defs>
  <path class="cls-1" d="M404.57,67.54c-151.03,0-273.47,122.44-273.47,273.47s122.44,273.47,273.47,273.47,273.47-122.44,273.47-273.47S555.6,67.54,404.57,67.54ZM404.57,556.12c-118.61,0-215.11-96.5-215.11-215.11s96.5-215.11,215.11-215.11,215.11,96.5,215.11,215.11-96.5,215.11-215.11,215.11Z"/>
  <path class="cls-2" d="M404.57,139.5c-111.11,0-201.51,90.4-201.51,201.51s90.4,201.51,201.51,201.51,201.51-90.4,201.51-201.51-90.39-201.51-201.51-201.51Z"/>
  <path d="M107.45,183.6c18.89-11.44,27.36-26.66,26.97-55.83-.39-28.97-3.09-115.83-3.09-115.83-.36-5.83-5.19-10.38-11.04-10.38-6.32,0-11.36,5.29-11.04,11.6l-2.54,85.47c0,6.9-5.59,12.49-12.49,12.49s-12.49-5.59-12.49-12.49l-3.04-86.98c-.16-6.48-5.46-11.65-11.95-11.65s-11.78,5.17-11.95,11.65l-3.04,86.98c0,6.9-5.59,12.49-12.49,12.49s-12.49-5.59-12.49-12.49l-.23-86.26c.31-6.31-4.73-11.6-11.04-11.6C9.66.77,4.82,5.32,4.47,11.15,4.47,11.15.47,97.27.02,126s8.19,46.16,27.09,57.6c12.3,7.45,19.15,21.37,17.57,35.66-11.44,159.65-12.07,412.87-12.07,429.97,0,24.83,15.28,44.96,34.14,44.96s34.14-20.13,34.14-44.96c0-17.1-6.86-323.4-11-429.97-1.59-14.28,5.28-28.22,17.57-35.66Z"/>
  <path d="M781.22,179.44c65.87-70.13-111.3-119.87-80.35,0,12.3,7.45,19.15,25.54,17.57,39.82-11.44,159.65-12.07,412.87-12.07,429.97,0,24.83,15.28,44.96,34.14,44.96s34.14-20.13,34.14-44.96c0-17.1-6.86-323.4-11-429.97-1.59-14.28,2.59-29.99,17.57-39.83Z"/>
  <ellipse cx="741.13" cy="99.47" rx="70.59" ry="98.15"/>
</svg>