<?xml version="1.0" encoding="UTF-8"?>
<svg id="Layer_1" xmlns="http://www.w3.org/2000/svg" viewBox="0 0 788.37 674.23">
  <path d="M392.93,65.59c-146.69,0-265.6,118.91-265.6,265.6s118.91,265.6,265.6,265.6,265.6-118.91,265.6-265.6S539.62,65.59,392.93,65.59ZM392.93,540.12c-115.2,0-208.92-93.72-208.92-208.92s93.72-208.92,208.92-208.92,208.92,93.72,208.92,208.92-93.72,208.92-208.92,208.92Z"/>
  <path d="M392.93,135.48c-107.91,0-195.71,87.8-195.71,195.71s87.8,195.71,195.71,195.71,195.71-87.8,195.71-195.71-87.79-195.71-195.71-195.71Z"/>
  <path d="M104.36,178.32c18.35-11.12,26.57-25.89,26.19-54.23-.38-28.13-3.01-112.5-3.01-112.5-.35-5.66-5.04-10.08-10.72-10.08-6.14,0-11.03,5.14-10.72,11.27l-2.46,83.01c0,6.7-5.43,12.13-12.13,12.13s-12.13-5.43-12.13-12.13l-2.95-84.48c-.16-6.3-5.3-11.32-11.6-11.32s-11.45,5.02-11.6,11.32l-2.95,84.48c0,6.7-5.43,12.13-12.13,12.13s-12.13-5.43-12.13-12.13l-.23-83.77c.3-6.13-4.59-11.27-10.72-11.27C9.38.75,4.68,5.17,4.34,10.83,4.34,10.83.45,94.47.02,122.37c-.43,27.48,7.96,44.83,26.31,55.95,11.94,7.23,18.6,20.76,17.06,34.64-11.11,155.06-11.72,400.99-11.72,417.6,0,24.12,14.85,43.67,33.16,43.67s33.16-19.55,33.16-43.67c0-16.6-6.66-314.1-10.68-417.6-1.54-13.87,5.12-27.41,17.06-34.64Z"/>
  <path d="M758.75,174.28c63.98-68.11-108.1-116.42-78.03,0,11.94,7.23,18.6,24.8,17.06,38.68-11.11,155.06-11.72,400.99-11.72,417.6,0,24.12,14.85,43.67,33.16,43.67s33.16-19.55,33.16-43.67c0-16.6-6.66-314.1-10.68-417.6-1.54-13.87,2.52-29.13,17.06-38.68Z"/>
  <ellipse cx="719.81" cy="96.61" rx="68.56" ry="95.32"/>
</svg>