<svg id="Layer_1" data-name="Layer 1" xmlns="http://www.w3.org/2000/svg" viewBox="0 0 383.86 310.67"><path d="M391.26,248c-1.49-.08-3,0-4.49,0-5,0-10,0-15,0-1.52,0-3-.08-3.42-2.1-1.07-4.66.19-7.95,4.23-10.51a16.84,16.84,0,0,0,1.78-1.37c4.27-3.49,5.42-8.15,5.18-13.4-.1-2.1-.23-4.1,2.47-5.2,3.59-1.47,5.14-4.27,4.69-7.23s-3-5.07-6.68-5.62a51.24,51.24,0,0,0-7.12-.19c-4.74,0-4.73,0-6.12-4.61-5.82-19.12-18.51-30.56-38.29-34-5.12-.89-5.13-.83-5.2-6.07-.14-9.3-5.55-14.82-14.91-15.12-3.87-.13-7.75-.05-11.62,0-10.65,0-16.53,5.63-16.76,16.26-.07,3.18-.95,4.48-4.32,5C255.56,166.92,242.51,178.4,237,198c-.94,3.32-2.39,4.47-5.68,4.31-3.1-.15-6.26-.41-9.31.53a6.33,6.33,0,0,0-4.81,5.61c-.32,2.71.46,5.41,3.12,6.18,4,1.18,4.35,3.83,4.16,7.17-.37,6.7,2.44,11.59,8.63,14.34a4,4,0,0,1,2.59,4.09c0,1.49,0,3,0,4.48,0,2.2-1,3.16-3.19,3.17q-22.68,0-45.36,0a3.13,3.13,0,0,1-2.73-.94c-1.91-2.45-.18-9.57,2.69-11,5.28-2.7,8-7,8-12.9,0-1.25,0-2.5,0-3.74a3.72,3.72,0,0,1,2.7-3.94c3.64-1.43,4.94-3.58,4.59-6.76s-2.51-5.37-6.21-6a47.82,47.82,0,0,0-7.85-.27c-4.63-.06-4.7-.1-5.85-4.5a45.2,45.2,0,0,0-18.72-26.63,46.14,46.14,0,0,0-20.54-7.58c-2.62-.35-3.79-1.42-3.63-4.06a18.7,18.7,0,0,0-.53-5.57,14.41,14.41,0,0,0-13.6-11.43,148.48,148.48,0,0,0-15.36,0A14.15,14.15,0,0,0,97,151.6c-1,2.37-.88,4.9-.77,7.38.13,2.93-1,4.25-4,4.55a31.39,31.39,0,0,0-11.55,2.95,6.34,6.34,0,0,0-3.48,7.5,6.89,6.89,0,0,0,6.84,4.81,9,9,0,0,0,3-.52,35.61,35.61,0,0,1,12.19-1.59c12.74.07,25.49,0,38.23,0,14.19,0,24.22,6.69,30.36,19.33,2.64,5.45,2.14,6.22-3.75,6.22h-93c-1,0-2,0-3-.06-1.8-.11-2.41-1-1.93-2.74a62.11,62.11,0,0,1,2.8-6.94c1.58-3.84.65-7.25-2.31-8.83-3.39-1.8-7-.66-9.29,3a35.76,35.76,0,0,0-4.64,11.39c-.71,3.39-2.45,4.41-5.74,4.27s-6.77-.57-10,.86c-2.31,1-4,2.62-4.17,5.28s.81,5.17,3.09,5.94c4.3,1.46,4.28,4.5,4.15,8-.21,5.45,1.92,10.16,6.73,12.46,4.21,2,4.73,4.83,4.52,8.68s-.39,4.3-4.28,4.35c-6.25.07-12.5-.13-18.74.08-5.93.19-8.61,2.29-10.43,7.73v27.69c1.95,5.76,4.53,7.68,10.65,7.91l1.13,0c6.49.1,6.5.1,6.5,6.72q0,31.24,0,62.47c0,27.55,0,55.11,0,82.66,0,7.25,2.47,9.67,9.69,9.75q9,.1,18,0c7.58-.08,9.89-2.36,9.93-9.84,0-9.47,0-18.95,0-28.42,0-7.37,0-7.37,7.37-7.37H183.08c2.49,0,5,.14,7.38-.88,3.1-1.33,4.71-3.78,4.37-6.67a6.79,6.79,0,0,0-5.91-5.88,36.25,36.25,0,0,0-5.61-.18q-50.22,0-100.44,0c-9.76,0-9.07.83-9.1-9.13,0-7.16,0-7.17,7.18-7.17q127.8,0,255.6,0c10.27,0,9.14-1.22,9.2,9.19,0,7.08,0,7.09-7,7.09H219.92a48.19,48.19,0,0,0-5.24.11c-3.73.41-6.34,2.82-6.58,6-.26,3.44,2,6.22,5.87,7.1a29.63,29.63,0,0,0,6.72.39q59.78,0,119.55,0c5.28,0,5.49.21,5.51,5.46,0,10.23,0,20.45,0,30.67,0,7,2.43,9.38,9.52,9.48,6,.09,12,.06,18,0,7.71-.06,10-2.4,10.11-10.11,0-1.5,0-3,0-4.49V298.82c0-8.18-.08-7.39,7.24-7.53,6.47-.12,9.07-2,11.05-7.9V255.7C399.87,250.26,397.18,248.25,391.26,248ZM124.12,164.32c-2.1-.16-4.23,0-6.34,0a45.29,45.29,0,0,0-5.59,0c-3,.38-4.34-.54-4-3.76.34-2.76-1-6.31,4.09-5.89a94.93,94.93,0,0,0,11.19,0c2.54-.09,3.74.86,3.58,3.44a17.85,17.85,0,0,0,0,3.35C127.45,163.92,126.3,164.49,124.12,164.32Zm168.59-8.19c.27-1.13,1.29-1.39,2.37-1.38,4.48,0,8.95,0,13.43,0,1.88,0,2.58.87,2.75,2.69.67,6.87.71,6.87-6,6.87h-3.36a39.17,39.17,0,0,1-4.47,0c-1.63-.2-4.09,1.05-4.74-.78A13.55,13.55,0,0,1,292.71,156.13Zm-43.72,44c3.88-13.86,16.57-24.19,31-24.44q22.08-.39,44.17,0c14.33.27,27.45,11.27,30.85,25.09.62,2.53-.22,2.89-2.49,2.88-17-.08-33.94-.05-50.92-.05-16.59,0-33.19-.07-49.79.07C248.72,203.67,248.22,202.85,249,200.08Zm-12.41,18c-.41-2.63.68-3.32,3.28-3.3,15.48.12,31,.06,46.44.06H302c20.6,0,41.2.06,61.79-.08,2.87,0,3.57.75,3.47,3.52-.29,7.66,1,6.68-6.87,6.68-39.71,0-79.41,0-119.11.1-3.78,0-5.4-.89-4.75-4.75A7,7,0,0,0,236.58,218Zm11.78,18.8c1.84-2.08,6.09-.65,9.29-.65,31.59-.06,63.19,0,94.78-.11,3,0,3.89.76,3.6,3.66s1,6.92-.55,8.65c-1.77,2-5.85.62-8.91.64-14.86.08-29.72,0-44.58,0-17,0-34-.06-51,.07-2.64,0-3.49-.66-3.25-3.28C248.07,242.77,246.79,238.61,248.36,236.84Zm29.31,23.62c-.24,1.39-1.31,1.93-2.05,2.68Q244,294.76,212.36,326.38c-2,2.05-3.09,2.11-5.18,0q-31.53-31.72-63.25-63.24c-.76-.75-1.45-1.57-2.48-2.69ZM64.05,236.82c1.78-2,5.85-.61,8.92-.63,15-.08,30,0,45,0,16.86,0,33.72.07,50.58-.06,2.65,0,3.48.67,3.24,3.29-.28,3.07,1,7.1-.58,9s-5.84.62-8.91.63c-31.72.05-63.44,0-95.16.11-3,0-3.88-.79-3.59-3.67S62.55,238.54,64.05,236.82Zm-6.77-22H118c20.35,0,40.7.09,61.05-.1,3.47,0,4.47,1,3.94,4.17a2.29,2.29,0,0,0,0,.37c0,5.69,0,5.69-5.57,5.69H57.52c-5.22,0-5.22,0-5.22-5.28C52.3,214.8,52.3,214.8,57.28,214.8ZM32.9,279c-3,0-4.17-.49-3.9-3.75a120.52,120.52,0,0,0,.05-12.32c0-1.75.16-2.67,2.35-2.66q45.87.11,91.73,0a4.67,4.67,0,0,1,3.58,1.59c5.45,5.48,11,10.91,17.12,17.06h-4.22C104,278.9,68.47,278.86,32.9,279Zm106.59,85.91q-11.61,0-23.23,0c-9.24,0-15.39-4.66-19.37-13.1h61.93C154.82,360.14,148.74,364.86,139.49,364.88ZM97,327.5h61.81c-4.15,8.41-10.33,13.06-19.79,12.88-7.61-.15-15.22-.08-22.82,0C107,340.43,101.05,335.77,97,327.5Zm207.7,37.33c-8.61.19-17.24.25-25.84,0s-14.36-5.22-18.17-13.11h61.63A18.87,18.87,0,0,1,304.65,364.83Zm-44-37.62h50.63c2.62,0,5.24-.06,7.85,0,1,0,2.5-.61,3,.54s-.77,2-1.33,2.89c-3.95,6.47-9.71,9.74-17.35,9.7-7.48-.05-15-.18-22.45,0C271.39,340.66,265,336.13,260.62,327.21ZM371,365.36c0,23.68-.06,47.36.06,71,0,3-.36,4.68-3.93,4.11-2.91-.47-6.85,1.25-8.58-.7-1.45-1.63-.51-5.44-.51-8.28Q358,362.74,358,294c0-3,.47-4.29,3.76-3.89,2.93.37,6.83-.88,8.66.6s.58,5.59.59,8.53Q371.07,332.28,371,365.36Zm16.52-86.42c-20-.07-40,0-60,0-1,0-2,0-3,0-3.3.21-5.49,2.33-5.59,5.36a5.41,5.41,0,0,0,5.52,5.79c6.49.14,13,.16,19.48,0,2.39-.06,2.87.71,2.86,3q-.12,34.41,0,68.82c0,2.47-.67,3.2-3.13,3.11-5.07-.19-10.15-.06-15.7-.06,2-3.33,3.86-6.23,5.59-9.2,3.47-5.93,2.1-11.29-4-14.41-1.72-.89-1.55-1.34-.68-2.6,1.41-2.05,2.6-4.25,4-6.31,2.49-3.65,3.52-7.44,1.2-11.53S328,315.93,323.6,316c-15.24.09-30.48,0-45.72,0-6.37,0-12.75-.05-19.12,0-9.38.1-13.6,7.61-8.81,15.62,1.72,2.87,3.52,5.7,5.47,8.83-2.08,1-4.29,1.84-5.63,3.84-2.29,3.41-2.61,7-.54,10.55,1.85,3.22,3.84,6.36,5.93,9.81H164.33l4.51-7.37c4.76-7.78,3.39-12.86-4.64-16.95,2-3.17,4-6.27,5.84-9.5,4-7.12-.13-14.73-8.33-14.78q-33.92-.24-67.83,0c-8.15.06-12.25,7.76-8.2,14.84,1.78,3.13,3.77,6.14,5.69,9.24-.34,1.19-1.59,1-2.37,1.47a9.51,9.51,0,0,0-3.59,13.26c1.79,3.24,3.85,6.34,6.11,10-5.94,0-11.48-.05-17,0-2,0-1.79-1.22-1.79-2.48q0-8.79,0-17.58c0-5.43-1.86-7.94-5.73-7.85-3.64.09-5.51,2.7-5.52,7.78,0,30.55,0,61.1.07,91.65,0,3.14-.52,4.62-4,4.07-2.91-.46-6.85,1.28-8.56-.71-1.44-1.67-.48-5.46-.48-8.31q0-68.82-.09-137.65c0-3.18.83-4.14,3.89-3.75s7-1.24,8.58.63.54,5.65.57,8.61c0,5.24,0,10.48,0,15.71,0,4.32,2.24,6.9,5.7,6.88s5.51-2.47,5.53-6.93c0-7.23.14-14.47-.06-21.69-.08-2.73.83-3.23,3.36-3.22q38,.14,76.08,0a6.62,6.62,0,0,1,5.18,2.25q23.25,23.35,46.61,46.59c4.85,4.83,6.91,4.82,11.8-.06q23.2-23.13,46.36-46.31a7.38,7.38,0,0,1,5.84-2.48c9.62.15,19.24.08,28.86.05,4.6,0,7.22-2.18,7.11-5.79-.12-3.45-2.64-5.4-7.1-5.42-6.7,0-13.39,0-21.12,0,6.27-6.21,11.8-11.62,17.24-17.12a5.07,5.07,0,0,1,4-1.52q45.34,0,90.7,0c2.26,0,3.06.47,2.94,2.85-.2,4.36-.22,8.74,0,13.09C390.65,278.66,389.7,279,387.54,278.94Z" transform="translate(-17.84 -142.3)"/></svg>