<?xml version="1.0" standalone="no"?>
<!DOCTYPE svg PUBLIC "-//W3C//DTD SVG 20010904//EN"
 "http://www.w3.org/TR/2001/REC-SVG-20010904/DTD/svg10.dtd">
<svg version="1.0" xmlns="http://www.w3.org/2000/svg"
 width="200.000000pt" height="200.000000pt" viewBox="0 0 200.000000 200.000000"
 preserveAspectRatio="xMidYMid meet">

<g transform="translate(0.000000,200.000000) scale(0.100000,-0.100000)"
fill="#a0a9b2" stroke="none">
<path d="M834 1986 c-110 -21 -182 -44 -272 -88 -261 -127 -453 -362 -529
-646 -23 -85 -26 -117 -26 -252 0 -135 3 -167 25 -251 48 -177 133 -325 263
-454 129 -130 277 -215 454 -263 133 -35 353 -37 484 -4 249 62 464 214 601
424 99 152 150 305 163 485 6 89 5 92 -20 117 -26 26 -66 33 -102 20 -25 -10
-45 -59 -45 -114 0 -67 -24 -181 -55 -260 -83 -212 -263 -392 -475 -475 -187
-73 -423 -73 -605 1 -494 201 -679 797 -384 1238 243 364 739 475 1116 250
l48 -29 -69 -6 c-59 -5 -73 -10 -93 -33 -30 -36 -30 -80 2 -111 24 -25 25 -25
220 -25 263 0 245 -18 245 242 -1 202 -3 213 -47 236 -35 19 -63 14 -94 -17
-27 -27 -29 -35 -29 -100 0 -39 -2 -71 -5 -71 -2 0 -36 21 -75 46 -85 55 -187
98 -295 125 -104 26 -304 34 -401 15z"/>
<path d="M903 1522 c-67 -24 -118 -64 -154 -120 -39 -62 -49 -102 -49 -199 l0
-83 -35 0 c-25 0 -44 -8 -60 -25 l-25 -24 0 -259 c0 -257 0 -259 23 -280 23
-22 27 -22 398 -22 l376 0 21 23 c21 23 22 30 22 281 l0 257 -25 24 c-16 17
-35 25 -58 25 l-35 0 -4 103 c-4 111 -20 154 -79 221 -70 80 -212 115 -316 78z
m157 -167 c56 -29 70 -59 70 -151 l0 -84 -130 0 -130 0 0 83 c0 91 10 115 64
148 37 23 87 24 126 4z m198 -542 l-3 -138 -255 0 -255 0 -3 138 -3 137 261 0
261 0 -3 -137z"/>
</g>
</svg>
