<svg version="1.2" xmlns="http://www.w3.org/2000/svg" viewBox="0 0 229 183" width="229" height="183">
	<title>Funzone-n-01-svg</title>
	<style>
		.s0 { fill: #fefefe } 
		.s1 { fill: #f8f8f8 } 
		.s2 { fill: #f2f2f2 } 
		.s3 { fill: #f5f5f5 } 
		.s4 { fill: #000000 } 
		.s5 { fill: #e5e5e5 } 
		.s6 { fill: #ededed } 
		.s7 { fill: #fdfdfd } 
		.s8 { fill: #fbfbfb } 
		.s9 { fill: #fcfcfc } 
		.s10 { fill: #f6f6f6 } 
		.s11 { fill: #f7f7f7 } 
		.s12 { fill: #2e2e2e } 
		.s13 { fill: #2b2b2b } 
		.s14 { fill: #363636 } 
		.s15 { fill: #4a4a4a } 
		.s16 { fill: #f9f9f9 } 
	</style>
	<path id="Layer" class="s0" d="m222.7 181.9v0.8h-222.5v-5.5q0.1 0 0.3-0.1 0.2 0 0.3 0 0.2 0 0.3 0 0.2 0.1 0.3 0.1c1 1.3 1.8 2.7 3.4 3.1 16.9 0.5 33.7 0.1 50.6 0.2q0.4 0 0.8 0 0.3-0.1 0.7-0.2 0.4-0.1 0.8-0.2 0.3-0.2 0.7-0.4c7.6-6.8 14.7-14.1 21.7-21.6q0.3-0.4 0.7-0.8 0.3-0.4 0.6-0.7 0.4-0.4 0.7-0.8 0.4-0.3 0.8-0.7 0.4-0.4 1-0.7 0.5-0.3 1.2-0.4 0.6-0.2 1.2-0.1 0.6 0 1.2 0.3c1.8 0.7 2.3 2.2 2.4 4q0 0.5-0.1 1.1 0 0.6-0.1 1.1 0 0.6-0.1 1.1-0.1 0.6-0.1 1.2c-0.3 3.8 1.1 5.5 5 6 0.3 0 0.6 0 0.9 0 14.8 0.4 14-0.1 13.9-12.8 0-7.4-0.1-14.7 0-22.1 0.1-4.5 1.8-6.8 4.8-6.9 3.1 0 5.6 2.8 5.7 6.9 0.3 9.3 0 18.7 0.1 28 0 6 0.9 6.8 6.8 6.9 2.4 0 4.8 0.2 7.2 0 4.3-0.2 5.6-1.7 5.5-6q-0.1-0.6-0.1-1.3-0.1-0.7-0.1-1.3 0-0.7 0-1.4 0-0.7 0.1-1.3c0.5-3.3 2.5-4.4 5.5-3q0.4 0.3 0.9 0.6 0.5 0.4 0.9 0.7 0.4 0.4 0.8 0.8 0.4 0.4 0.7 0.9c7.6 7.5 14.8 15.4 22.9 22.4 1.7 0.9 3.5 0.7 5.3 0.7q20.3 0 40.5 0c2.1 0 4.3-0.5 5.9 1.4z"/>
	<path id="Layer" class="s1" d="m0.2 171.8v-5.4q0.2-0.1 0.3-0.2 0.2 0 0.4 0 0.2 0.1 0.3 0.2 0.2 0.1 0.3 0.2 0.3 0.6 0.5 1.2 0.2 0.7 0.2 1.3 0 0.7-0.2 1.3-0.2 0.6-0.5 1.2-0.1 0.2-0.3 0.3-0.1 0.1-0.3 0.1-0.2 0-0.4 0-0.1-0.1-0.3-0.2z"/>
	<path id="Layer" class="s2" d="m0.2 171.8h1q0.5 0.6 0.8 1.3 0.3 0.7 0.3 1.4 0 0.8-0.3 1.5-0.3 0.7-0.8 1.2h-0.9z"/>
	<path id="Layer" class="s3" d="m1.2 166.4h-1v-4.5l1.1 0.1q0.4 0.4 0.6 1 0.2 0.6 0.2 1.2 0 0.6-0.3 1.2-0.2 0.6-0.6 1z"/>
	<path id="Layer" class="s4" d="m1.2 166.4l0.2-4.4c5-6.5 11.2-11.7 16.8-17.5 8.7-9 17.7-17.7 26.5-26.6 4.9-4.9 10.3-8.8 17-10.7 3.6-1 4.6-3.3 4.4-6.8-1-13.8 0.1-27.7-0.6-41.5-0.2-4 1.4-5.4 5.5-5.5q1.5-0.1 2.9-0.1 1.5-0.1 3-0.1 1.4 0 2.9 0.1 1.5 0 2.9 0.1c4.6 0.4 6-1.1 6-5.7 0-5.2-1.1-6.5-5.7-6.4q-6.4 0.2-12.7 0.2c-2 0-4-0.3-4.8-2.5-0.9-2.4 0.9-3.5 2.6-4.6 14.5-10.5 29.1-20.8 43-32.3 2.3-1.9 4.4-2 6.8 0 13.8 11.2 28.2 21.5 42.7 31.9 1.6 1.2 3.8 2.3 3 4.9-0.8 2.6-3.3 2.7-5.6 2.7-4.2-0.1-8.5-0.2-12.7-0.3-4.2 0-4.9 0.9-5 5.6-0.1 5 0.9 6.5 4.7 6.5 4.1 0.1 8.1-0.2 12.2-0.2 4.9 0 6.7 1.7 6.4 6.6-0.7 13.8 0.6 27.7-0.7 41.5-0.2 2.8 0.9 4.8 3.6 5.5 8.9 2.3 15.2 8.3 21.4 14.5 13 13 26 25.9 39 38.9 1.7 6 0.6 12.1 0.6 18.1 0 1.7-1.6 2.9-3.6 2.9-18-0.1-36.1 0.4-54.1-0.3-0.2 0-0.3-0.1-0.4-0.2-7.7-8.3-16.3-15.6-23.6-24.3-1.1-1.4-2.6-3-4.6-1.8-1.7 1-1.1 2.9-1 4.5 1.1 10.2 0.6 10.8-9.7 10.7-2.2 0-4.5 0.1-6.8-0.1-4.1-0.3-5.2-1.5-5.2-5.7 0-9.5 0.1-19 0.2-28.4 0-1.1 0.1-2.1 0.1-3.2-0.1-2.9-1.7-4.6-4.5-4.6-3.1-0.1-4.1 2-4.1 4.8 0.1 9.8 0.1 19.5 0.3 29.3 0.1 6.8-0.9 8-7.7 8-2.8 0-5.7 0-8.5-0.1-5.1-0.3-6.7-2.2-6.2-7.3 0.2-1.3 0.6-2.6 0.7-4 0.1-1.4 0.3-3.2-1.3-4-1.8-0.8-3.3 0.3-4.3 1.7-3.9 5.4-9 9.7-13.6 14.4q-4.9 5.1-9.8 10c-0.6 0.8-1.6 0.6-2.5 0.6h-52.2q-0.8 0.2-1.6-0.1-0.8-0.3-1.4-0.9-0.6-0.6-0.9-1.4-0.2-0.8-0.1-1.6 0.1-0.7 0.2-1.4 0.1-0.6 0.1-1.3 0-0.7-0.1-1.4-0.1-0.7-0.2-1.3 0.2-0.7 0.3-1.4 0.1-0.6 0.1-1.3 0-0.7-0.1-1.4-0.1-0.6-0.2-1.3z"/>
	<path id="Layer" class="s5" d="m169.4 180.8c17.7 0 35.5 0 53.2 0.1 3.2 0 5-1.4 4.9-4.5-0.2-5.4 0.7-10.8-0.6-16.2q0.3 0.1 0.5 0.2 0.3 0.2 0.4 0.4 0.2 0.2 0.3 0.5 0.1 0.3 0.1 0.5c0 5.4 0.1 10.8 0 16.2-0.1 3.3-2.7 3.8-5.5 3.9-16.1 0-32.2 0-48.3-0.1-1.7 0-3.7 0.8-5-1z"/>
	<path id="Layer" class="s6" d="m2.9 180.9q25.3 0.1 50.7 0.2c2.1 0 4.1-0.3 6.3-0.4-0.7 1.4-2 1.1-3.2 1.1q-25.4 0-50.9 0c-1 0-2.1 0.1-2.9-0.9z"/>
	<path id="Layer" class="s0" d="m113.9 112.9q2.2-0.1 4.4 0.3 2.2 0.4 4.2 1.3 2.1 0.8 3.9 2 1.9 1.2 3.5 2.8c11.5 11.1 22.7 22.4 34 33.6 2.7 2.7 5.3 5.4 8.2 7.8 2.8 2.5 3.5 5.8 3.4 9.4 0 1.4-0.3 2.8-1.7 3.4-1.7 0.7-3-0.2-4-1.4-3-3.4-6-6.7-9.2-10-10.4-10.2-20.5-20.7-30.8-31.1q-1-1.1-2.1-2.1-1.1-1-2.2-1.9-1.1-1-2.2-1.9-1.2-0.9-2.4-1.8c-4.3-3.1-9.1-3.2-13.2 0.1-8.5 6.8-15.6 15-23.3 22.7-8.5 8.3-17.2 16.5-25 25.4-1.1 1.3-2.4 2.7-4.3 2-2.1-0.8-1.7-2.8-1.8-4.6q-0.1-1.2 0.1-2.3 0.2-1.1 0.7-2.1 0.4-1.1 1-2 0.7-0.9 1.5-1.6c12.8-12.6 25.5-25.3 38.2-37.9 4.2-4.1 8.7-8 14.6-9.5 1.9-0.3 3.7-0.5 4.5-0.6z"/>
	<path id="Layer" class="s7" d="m117.7 83.1c0-6 0.6-12 0.1-18-0.3-4 1.3-5.4 5.4-5 8.9 0.9 17.7 0.4 26.6 0.2 5.6-0.1 6.9 1.1 6.7 6.7-0.5 11.2-0.4 22.5 0 33.8 0.2 4-1.6 6.4-4.7 6-3.1-0.5-4.3-2.6-4-5.6 0.7-7.2 0.2-14.4 0.4-21.6 0.2-6-5.8-11.6-11.6-11.3-5.2 0.2-10.7 6-10.7 11.4q0.1 10.6 0.3 21.2c0.1 4.2-1.2 6-4.3 6-3-0.1-4.3-2.2-4.3-6.1 0.1-5.9 0.1-11.8 0.1-17.7z"/>
	<path id="Layer" class="s7" d="m72.3 83.3c0.1-6 0.8-12 0.2-18.1-0.3-3.9 1.2-5.1 5.2-5 9.4 0.2 18.9 0.7 28.4-0.2 3.7-0.4 5.4 1.4 5.1 5.5-0.6 9.9 0 19.9-0.2 29.8 0 1.9 0.2 3.9 0.3 5.9 0.1 3.6-1.4 5.5-4.3 5.6-2.9 0.1-4.9-2-4.5-5.5 0.7-6.9 0-13.8 0.5-20.8 0.3-4.7-3.6-10.3-8-11.8-6.4-2.3-14.3 3.4-14.3 10.4 0 7.2 0.2 14.4 0.3 21.7 0 2 0.3 4-1.7 5.3q-0.5 0.3-1.1 0.5-0.6 0.2-1.2 0.2-0.6 0.1-1.3-0.1-0.6-0.1-1.1-0.4c-1.9-0.9-2.3-2.6-2.3-4.6 0-6.1 0-12.3 0-18.4z"/>
	<path id="Layer" class="s0" d="m141.6 34.9c-18.1-0.1-36.2-0.6-54.2 0.1q-0.4 0-0.8 0-0.4-0.1-0.8-0.1-0.4 0-0.8-0.1-0.4-0.1-0.7-0.2c-2-0.6-2.3-1.9-1.1-3.4q0.2-0.3 0.5-0.6 0.3-0.3 0.6-0.5 0.3-0.3 0.6-0.5 0.3-0.2 0.7-0.4c9.2-5.2 17.3-12 25.4-18.7 2.5-2 4.5-1.8 6.8 0 8.2 6.6 16.5 13.2 25.5 18.6 1.5 0.9 3.5 2 2.9 4.2-0.6 2.1-2.9 1.5-4.6 1.6z"/>
	<path id="Layer" class="s7" d="m37 174c-4-0.4-7.1 0.2-10.3 0.4-1.4 0.1-2.8-0.2-3.4-1.7-0.6-1.5 0.4-2.5 1.5-3.5 16-13.5 29.9-29.2 44.9-43.7 4.1-4 8.4-7.8 13.4-10.7q0.6-0.4 1.2-0.7 0.7-0.3 1.4-0.6 0.7-0.3 1.4-0.4 0.7-0.2 1.4-0.3c1.6-0.1 3.2 0 3.9 1.6 0.6 1.5-0.4 2.6-1.5 3.5-2 1.8-4.2 3.5-6.1 5.4-11.9 11.7-23.7 23.6-35.6 35.3q-0.7 0.6-1.3 1.5-0.6 0.8-0.9 1.8-0.4 0.9-0.5 1.9-0.1 1 0.1 2c1 7.9 0.1 8.7-7.7 8.2-0.9-0.1-1.8 0-1.9 0z"/>
	<path id="Layer" class="s7" d="m8.1 168.1c-0.2-2.5 1-4.9 3.2-7 13.2-13 26.2-26.2 39.4-39.2q1.5-1.6 3.2-3 1.8-1.3 3.6-2.5 1.9-1.2 3.9-2.1 2-1 4.1-1.7c1.4-0.5 3.1-0.8 4.1 0.7 1.1 1.7 0.1 3.2-1.2 4.3-16.3 14.8-31.3 31-47 46.3q-0.9 0.8-1.8 1.7-0.9 0.9-1.7 1.8-0.8 0.9-1.7 1.8-0.8 1-1.6 1.9c-1.2 1.6-2.6 3.3-4.8 2.3-2.1-0.9-1.8-2.9-1.7-5.3z"/>
	<path id="Layer" class="s7" d="m186.4 129.6l6 5.4c1.2 1 2.3 2.2 1.8 3.8-0.6 1.9-2.3 1.9-3.8 1.7-8.5-0.7-17.1-0.2-25.6-0.1q-0.8 0-1.6-0.1-0.7-0.2-1.5-0.5-0.7-0.3-1.3-0.7-0.7-0.4-1.2-1c-1.7-1.5-3.5-2.8-5.2-4.2-1.7-1.1-3.5-2.5-2.6-4.7 0.9-2.2 3-2.3 5-1.9 7.4 1.4 14.9 0.7 22.4 0.4 2.8-0.1 5.5-0.3 7.6 1.9z"/>
	<path id="Layer" class="s7" d="m175.8 155.3q-1.6-1.5-3.3-3c-1-1.1-2.6-2.3-2-4.2 0.7-1.8 2.7-1.8 4.3-1.5q2.2 0.4 4.4 0.6 2.2 0.2 4.3 0.3 2.2 0 4.4-0.1 2.2-0.1 4.4-0.4c8.5-1.2 14.7 2.2 20.3 7.7 1.1 3.8 0.6 5.1-3 4.8-8.9-0.7-17.8-0.3-26.7-0.1-2.9 0.1-5.2-1.9-7.1-4.1z"/>
	<path id="Layer" class="s8" d="m200 165.8c4.8-0.2 10.1 0.3 15.4-0.3 3.4-0.3 5.5 1.5 5.6 4.4 0 2.8-2 4.6-5.6 4.4-9.3-0.6-18.6-0.4-28-0.1-3.9 0.1-5.7-1.1-5.8-4-0.1-3.1 2-4.9 5.8-4.6 4.1 0.4 8.1 0.1 12.6 0.2z"/>
	<path id="Layer" class="s9" d="m158.1 121.5c-3.8 0-7.5-0.2-11.3 0-3.7 0.3-6.3-1.3-8.8-3.6-1.1-1-1.9-2.1-1.3-3.6q0.2-0.4 0.5-0.7 0.3-0.3 0.7-0.6 0.4-0.2 0.8-0.3 0.5 0 1 0c8.2 0.1 16.5 0.2 24.7 0.5 3.2 0.2 6 2 8.8 3.4 1.3 0.6 2.4 1.7 2 3.2-0.4 1.8-2 2.1-3.6 2q-1.7-0.2-3.3-0.3-1.7-0.1-3.4-0.1-1.7-0.1-3.4-0.1-1.7 0.1-3.4 0.2z"/>
	<path id="Layer" class="s8" d="m87.6 90.6q0-5.2 0-10.4c0-2.7 0.9-4.8 3.9-5.1 2.5-0.2 4.6 2 4.6 5.1 0 7.2-0.4 14.5 0.1 21.7 0.3 2.9-1.2 4.6-4.1 4.8-2.9 0.2-4.7-1.8-4.7-4.8 0.1-3.8 0.4-7.6 0.5-11.3z"/>
	<path id="Layer" class="s8" d="m141.5 91.1q0 5.2 0 10.3c0 3.5-1.7 5.4-4.6 5.3-2.8-0.1-4.6-2.1-4.3-5.2 0.7-6.9 0.3-13.8 0.2-20.7 0-3.6 1.6-5.7 4.2-5.7 2.7 0 4.3 2.1 4.4 5.7 0 3.5 0 6.9 0 10.3z"/>
	<path id="Layer" class="s10" d="m97.1 142.1l2.7-2.7c3.6-0.8 5.5 0.5 4.7 3.7-1.2 4.8-0.7 9.5-0.4 14.3 0.3 4.2-1.2 6.2-4.6 6.2-3.4 0.1-4.7-1.6-4.8-6 0-3 0.2-6 0-9q-0.1-0.9 0-1.8 0.1-0.9 0.4-1.8 0.3-0.8 0.8-1.6 0.5-0.7 1.2-1.3z"/>
	<path id="Layer" class="s11" d="m134 47.9c0 4.1-1.3 5.9-4.4 5.9-3.2 0-4.5-1.8-4.5-5.9q0-1.3 0-2.7c0.1-2.5 1.4-4.3 4.1-4.3 2.8-0.1 4.5 1.4 4.7 4.3 0.2 0.9 0.1 1.8 0.1 2.7z"/>
	<path id="Layer" class="s11" d="m94.9 47.3c0.1-2.4-0.3-5 2.6-6.1q0.7-0.3 1.4-0.4 0.7-0.1 1.5 0.1 0.7 0.2 1.3 0.6 0.6 0.4 1.1 0.9c1.5 1.8 1.5 8.3 0 9.9-1.7 1.8-3.7 1.8-5.8 0.9-1.7-0.7-2.1-2.1-2.1-5.9z"/>
	<path id="Layer" class="s11" d="m111.6 53.3c-2.3-2.7-1.6-6-1.4-9 0.2-2.4 1.8-3.4 4-3.4 2.4 0 4.2 1 4.5 3.5q0 0.9 0 1.8 0 0.9 0 1.8 0 0.9 0 1.8 0 0.9 0 1.8c-1.8 3.1-4.4 2.7-7.1 1.7z"/>
	<path id="Layer" class="s12" d="m124.1 150.6q0-4.3 0-8.5c0-1.8 0.4-3.4 2.1-4.1 1.7-0.7 2.8 0.5 4 1.5 3.2 2.7 5.5 5.7 4.9 10.4-0.4 3 0 6-0.1 9-0.1 3.5-2 5.6-5 5.7-3.5 0-5.7-2.2-5.9-5.9q0-2 0-4 0-2.1 0-4z"/>
	<path id="Layer" class="s13" d="m97.1 142.1c-3.6 5.6-1.2 12-1.7 17.9-0.2 2.2 2 3.2 4.2 3.1 2.2-0.1 3.8-1.2 3.9-3.5 0.1-2.4-0.1-4.5-0.1-6.8q-0.1-1.1-0.1-2.3 0-1.2 0.1-2.4 0-1.2 0.1-2.3 0.1-1.2 0.3-2.4c0.5-3-0.7-4.6-4-4 3.1-2.3 5.5-1.7 5.2 1.7q-0.2 2.3-0.3 4.6-0.1 2.2-0.1 4.5 0 2.3 0 4.6 0.1 2.3 0.2 4.6c0.2 3.5-2.7 5.4-6 5.1-3.3-0.2-4.6-1.8-4.6-5.8 0-4 0-7.8 0-11.7 0-2.2 0.5-4.1 2.9-4.9z"/>
	<path id="Layer" class="s14" d="m175.8 155.3c3.5 3.1 7.4 3.5 12 3.3q2.6-0.1 5.2-0.2 2.5-0.1 5.1 0 2.6 0 5.1 0.2 2.6 0.1 5.2 0.4c4 0.5 4.7-0.4 4.3-4.3 2.7 2.6 2.4 4.4-0.7 5.2q-0.3 0.1-0.6 0.1-0.3 0.1-0.5 0.1-0.3 0-0.6 0-0.3 0-0.6 0c-8.6-0.7-17.3 0.2-25.9-0.1-3.5-0.1-6.5-1.1-8-4.7z"/>
	<path id="Layer" class="s13" d="m186.4 129.6c-2.6-1.4-5.4-1.4-8.3-1.3q-2.6 0.2-5.2 0.2-2.6 0.1-5.2 0.1-2.6 0-5.2-0.1-2.5-0.2-5.1-0.4c-2-0.2-4.2-0.9-5.4 1.2-1.2 2.1 1.3 3 2 4.5-3-0.4-4.1-2.2-3.5-5 0.6-2.9 3.2-2.3 5.1-2.1q3 0.5 6.1 0.7 3.1 0.2 6.1 0.2 3.1 0 6.2-0.2 3-0.2 6.1-0.6c2.3-0.3 5.1-0.2 6.3 2.8z"/>
	<path id="Layer" class="s15" d="m111.6 53.3c2.7 0.8 5.1 0.5 7.1-1.7-1.5 3.5-3.5 4-7.1 1.7z"/>
	<path id="Layer" class="s16" d="m133.4 153.6c0.2 1.3 0.4 3.2 0.4 5 0 2.6-1.1 4.4-3.9 4.5-2.8 0.1-4.8-1.5-4.6-4.4q0.2-2 0.2-4 0.1-2.1 0.1-4.1 0-2-0.2-4-0.1-2.1-0.3-4.1-0.1-0.4-0.1-0.9 0.1-0.4 0.3-0.8 0.2-0.5 0.5-0.8 0.3-0.3 0.8-0.5c1.3-0.5 2.3 0.3 3.2 1.1 2.8 2.5 4.9 5.3 4 9.4q-0.1 0.5-0.1 0.9-0.1 0.4-0.1 0.9-0.1 0.4-0.1 0.9 0 0.4-0.1 0.9z"/>
</svg>