<svg width="100%" viewBox="0 0 140 40" version="1.1" xmlns="http://www.w3.org/2000/svg" xmlns:xlink="http://www.w3.org/1999/xlink">
    <!-- Generator: Sketch 49 (51002) - http://www.bohemiancoding.com/sketch -->
    
    <defs></defs>
    <g id="Hotel-layout" stroke="none" stroke-width="1" fill="none" fill-rule="evenodd">
        <g id="Log-In" transform="translate(-816.000000, -560.000000)">
            <g id="login" transform="translate(466.000000, 80.000000)">
                <g id="social" transform="translate(0.000000, 417.000000)">
                    <g id="g+" transform="translate(350.000000, 63.000000)">
                        <rect id="Rectangle-2" fill="#F34A38" x="0" y="0" width="140" height="40" rx="3"></rect>
                        <g id="Group-3" transform="translate(24.000000, 9.000000)" fill="#FFFFFF">
                            <g id="google-plus" transform="translate(10.000000, 3.000000)" fill-rule="nonzero">
                                <path d="M8.74974949,9.62441417 L12.6460216,9.62441417 C11.9621032,11.5580196 10.1098039,12.9443598 7.9412597,12.9283598 C5.3100216,12.9089312 3.13434813,10.804006 3.03219847,8.17467268 C2.92270187,5.3562237 5.18387194,3.02838696 7.97842977,3.02838696 C9.25619847,3.02838696 10.4222393,3.51524411 11.3013141,4.31301281 C11.5095318,4.50201962 11.8264842,4.5032169 12.0312733,4.31045499 L13.4623481,2.96357064 C13.6861304,2.75290397 13.6869468,2.39714887 13.4638175,2.18577472 C12.0696951,0.865012814 10.1995454,0.0417747189 8.13723249,0.00150261009 C3.73853861,-0.0843749409 0.0308379286,3.52210125 0.000198472791,7.92155703 C-0.0307130918,12.3540468 3.55312364,15.9568768 7.97842977,15.9568768 C12.2341577,15.9568768 15.7107291,12.6246863 15.9435998,8.42718968 C15.9498039,8.37456383 15.9538855,6.59600601 15.9538855,6.59600601 L8.74974949,6.59600601 C8.45445698,6.59600601 8.21511004,6.83535295 8.21511004,7.13064547 L8.21511004,9.08977472 C8.21511004,9.38506724 8.4545114,9.62441417 8.74974949,9.62441417 Z" id="Shape"></path>
                            </g>
                            <text id="Google" font-family="'Outfit', sans-serif" font-size="14" font-weight="400">
                                <tspan x="36" y="16">Google</tspan>
                            </text>
                        </g>
                    </g>
                </g>
            </g>
        </g>
    </g>
</svg>