<svg width="512px" height="512px" viewBox="0 0 19 16" fill="none" xmlns="http://www.w3.org/2000/svg">
<path d="M4.53274 0C6.28658 0 7.85942 1.00486 8.6124 2.55482C8.77684 2.89331 9.2591 2.89331 9.42354 2.55482C10.1765 1.00486 11.7494 0 13.5032 0C16.0065 0 18.0359 2.02936 18.0359 4.53269C18.0359 6.87016 16.8022 9.14133 14.5593 11.406C13.4318 12.5444 11.8269 13.7833 9.74624 15.1184C9.30179 15.4036 8.732 15.4041 8.28707 15.1197C6.22117 13.7989 4.61734 12.5598 3.47697 11.4063C1.2166 9.11984 4.52995e-05 6.87625 4.52995e-05 4.53269C4.52995e-05 2.02936 2.0294 0 4.53274 0Z" fill="url(#paint0_linear_802_48046)"/>
<defs>
<linearGradient id="paint0_linear_802_48046" x1="18.0359" y1="7.66633" x2="4.59107e-05" y2="7.66633" gradientUnits="userSpaceOnUse">
<stop stop-color="#FF0000"/>
<stop offset="1" stop-color="#F02424"/>
</linearGradient>
</defs>
</svg>
