<svg id="Layer_1" height="512" viewBox="0 0 64 64" width="512" xmlns="http://www.w3.org/2000/svg" data-name="Layer 1"><path d="m32 13a19 19 0 1 0 19 19 19 19 0 0 0 -19-19zm0 34.78a15.78 15.78 0 1 1 15.78-15.78 15.8 15.8 0 0 1 -15.78 15.78z"/><circle cx="32" cy="32" r="13.78"/><path d="m56 8c-2.76 0-5 2.91-5 6.5 0 3.08 1.65 5.66 3.87 6.33l-.87 32.97a1.27 1.27 0 0 0 0 .2 2 2 0 0 0 4 0 1.27 1.27 0 0 0 0-.2l-.86-33c2.21-.64 3.86-3.22 3.86-6.3 0-3.59-2.24-6.5-5-6.5z"/><path d="m13 14v-5a1 1 0 0 0 -2 0v5c0 2.13-.85 4-2 4.68v-9.68a1 1 0 0 0 -2 0v9.68c-1.15-.68-2-2.55-2-4.68v-5a1 1 0 0 0 -2 0v5c0 3.38 1.63 6.12 3.87 6.82l-.87 32.98a1.27 1.27 0 0 0 0 .2 2 2 0 0 0 4 0 1.27 1.27 0 0 0 0-.2l-.86-33c2.23-.68 3.86-3.42 3.86-6.8z"/></svg>