<svg version="1.2" xmlns="http://www.w3.org/2000/svg" viewBox="0 0 548 384" width="548" height="384">
	<title>youtube-svg</title>
	<style>
		.s0 { fill: #ffffff } 
	</style>
	<path id="Layer" fill-rule="evenodd" class="s0" d="m547.1 192.4c0 0 0 89.4-11.4 132.3-6.3 23.6-24.8 41.5-48.3 47.8-42.6 11.5-213.4 11.5-213.4 11.5 0 0-170.8 0-213.4-11.5-23.5-6.3-42-24.1-48.3-47.8-11.4-42.9-11.4-132.3-11.4-132.3 0 0 0-89.4 11.4-132.3 6.3-23.7 24.8-42.3 48.3-48.6 42.6-11.5 213.4-11.5 213.4-11.5 0 0 170.8 0 213.4 11.5 23.5 6.3 42 24.9 48.3 48.6 11.4 42.9 11.4 132.3 11.4 132.3zm-186.2 0l-142.7-81.2v162.4z"/>
</svg>